<?xml version="1.0" encoding="utf-8"?>
<!-- Generator: Adobe Illustrator 27.5.0, SVG Export Plug-In . SVG Version: 6.00 Build 0)  -->
<svg version="1.1" id="Layer_1" xmlns="http://www.w3.org/2000/svg" xmlns:xlink="http://www.w3.org/1999/xlink" x="0px" y="0px"
	 viewBox="0 0 800 800" style="enable-background:new 0 0 800 800;" xml:space="preserve">
<g>
	<polygon points="615.612,697.364 613.496,694.542 612.79,691.014 611.026,690.662 609.615,691.72 609.615,691.014 608.204,690.309 
		607.851,690.662 607.851,693.131 607.851,694.189 609.262,697.364 611.026,700.892 612.437,701.245 612.437,698.423 
		613.496,698.776 614.201,699.834 616.671,706.184 618.082,706.89 617.729,704.42 	"/>
	<polygon points="105.489,393.972 99.844,391.855 98.081,391.502 95.964,394.324 92.789,393.972 89.261,391.855 87.85,391.502 
		88.555,392.913 93.142,395.383 93.142,397.147 92.436,398.558 92.436,401.027 92.083,403.144 91.73,404.555 94.553,405.613 
		98.081,408.083 99.844,407.73 102.667,406.672 104.431,405.613 106.195,403.849 106.547,397.499 106.195,396.088 	"/>
	<polygon points="257.891,549.901 260.713,547.785 262.124,547.079 263.536,548.49 266.358,546.021 266.711,544.257 
		266.005,543.904 263.888,543.904 263.183,544.61 261.772,544.962 261.066,543.551 259.302,541.787 257.185,540.729 
		254.363,540.729 253.305,541.082 252.599,541.787 252.246,541.787 251.541,542.846 250.483,546.021 248.719,546.374 
		248.366,546.55 247.66,546.726 247.308,547.079 246.602,547.432 245.544,549.549 245.632,549.99 245.544,550.254 245.755,550.607 
		245.896,551.313 246.439,551.747 246.602,552.018 246.982,552.181 247.66,552.724 248.032,552.631 249.071,553.076 
		251.541,554.135 253.305,553.782 253.658,551.665 	"/>
	<polygon points="641.013,651.856 638.896,646.917 636.427,645.858 635.368,644.094 633.957,643.389 633.604,643.742 
		633.604,645.505 634.663,648.68 635.721,651.15 638.543,652.208 639.954,658.558 639.954,661.028 639.602,662.439 641.366,662.792 
		642.071,662.086 642.071,660.322 640.66,655.031 	"/>
	<polygon points="298.461,613.755 305.164,609.874 311.867,607.052 312.623,606.599 312.925,606.699 313.631,605.994 
		313.631,600.702 312.22,599.291 309.75,599.291 308.692,599.291 305.164,600.702 299.519,603.524 298.108,605.641 296.344,606.347 
		296.297,606.417 295.639,606.699 293.522,608.463 293.169,611.638 293.522,612.344 295.286,613.755 	"/>
	<polygon points="491.786,693.484 493.197,693.484 493.197,690.309 494.608,689.603 494.608,687.487 494.255,687.134 
		491.786,687.134 490.022,683.959 488.611,683.606 488.258,683.959 488.611,687.839 490.022,690.662 	"/>
	<polygon points="317.511,593.294 319.628,591.883 319.628,590.119 318.922,589.413 316.806,588.707 315.395,589.06 
		314.336,590.471 314.689,593.646 313.513,594.038 313.278,593.999 312.572,594.352 311.867,596.116 313.983,596.116 
		317.511,595.41 317.511,596.116 318.922,596.116 319.275,595.058 316.806,594.352 316.806,593.294 	"/>
	<polygon points="448.746,695.953 445.571,695.953 444.16,696.659 444.079,696.849 443.807,697.012 442.749,700.187 442.9,700.136 
		442.749,700.892 443.455,703.362 440.985,703.009 441.338,704.42 443.102,705.831 445.219,706.537 446.982,705.831 446.63,704.773 
		450.51,704.42 451.569,703.715 452.98,701.245 453.333,699.128 451.569,697.012 	"/>
	<polygon points="500.605,693.131 497.783,691.367 496.372,691.014 496.019,691.367 494.608,694.895 492.491,694.895 
		492.139,695.601 490.375,695.601 488.964,694.542 488.728,694.503 488.258,694.189 487.694,694.331 486.847,694.189 
		487.004,694.503 486.847,694.542 487.288,695.071 487.552,695.601 488.17,696.13 488.611,696.659 489.14,696.961 490.022,697.717 
		490.569,697.778 491.08,698.07 493.49,698.242 493.55,698.423 496.019,698.423 497.078,697.012 498.841,696.659 500.958,698.423 
		501.311,702.656 502.017,703.715 503.78,703.362 503.78,700.539 503.78,695.601 502.017,694.895 	"/>
	<polygon points="244.132,536.848 242.721,536.496 240.252,537.907 240.252,538.612 241.663,539.318 243.427,539.671 
		245.896,538.612 256.127,536.496 255.774,535.085 253.658,535.085 246.602,536.848 	"/>
	<polygon points="196.154,469.114 194.743,471.231 194.743,471.936 194.743,474.406 195.449,475.464 197.918,476.875 
		201.093,476.875 201.799,476.523 202.504,475.935 203.21,475.464 203.386,475.2 203.915,474.759 204.016,474.255 204.621,473.348 
		204.621,471.231 203.21,469.467 200.387,468.056 197.918,468.056 	"/>
	<polygon points="133.006,398.91 131.242,397.499 129.478,397.499 128.773,397.852 127.009,399.263 127.009,401.38 128.773,403.497 
		130.889,404.908 135.828,405.966 136.887,406.672 138.651,407.024 138.651,405.966 136.887,404.202 	"/>
	<polygon points="398.651,649.739 400.768,649.739 401.473,649.033 401.826,647.269 400.415,646.211 396.887,646.211 395.123,644.8 
		394.418,645.153 394.065,646.917 395.123,647.975 397.24,648.328 	"/>
	<polygon points="206.385,565.424 203.915,566.129 198.271,567.893 196.507,569.304 196.154,571.774 197.565,573.185 
		200.387,573.185 202.857,572.127 206.385,570.363 209.207,568.246 209.207,566.482 208.149,565.424 	"/>
	<polygon points="288.936,624.691 287.525,625.75 287.525,626.455 287.525,628.219 288.23,628.925 288.521,628.966 288.936,629.277 
		291.053,629.277 292.111,628.572 292.111,626.455 291.053,625.044 	"/>
	<polygon points="196.86,458.883 197.918,457.12 197.918,455.003 197.212,453.592 195.449,452.181 192.626,452.181 191.215,453.239 
		189.804,455.356 190.157,457.825 191.921,459.942 194.743,459.942 	"/>
	<polygon points="241.31,603.524 239.899,604.23 238.135,605.641 238.135,607.405 240.605,607.405 243.78,605.994 244.132,604.23 
		243.427,603.524 	"/>
	<polygon points="401.826,679.373 400.768,678.667 400.415,678.314 400.163,678.264 399.71,677.961 395.829,677.961 
		393.359,680.078 393.007,682.548 393.712,683.959 395.829,685.37 399.71,685.37 401.826,683.606 401.842,683.542 402.179,683.253 
		402.297,682.43 402.532,682.548 402.406,681.666 402.532,680.784 	"/>
	<polygon points="276.236,569.657 271.297,572.127 270.944,573.538 272.002,573.538 278.352,570.716 281.88,568.599 281.88,567.893 
		280.822,567.893 	"/>
	<polygon points="288.583,617.636 289.289,615.872 288.23,614.461 285.761,614.461 284.35,615.166 283.997,617.283 284.702,617.988 
		288.23,617.988 	"/>
	<polygon points="206.738,462.764 205.679,463.822 205.326,465.586 206.032,466.645 207.796,467.35 209.913,465.586 
		209.913,463.822 209.207,463.117 	"/>
	<polygon points="299.872,566.129 300.225,564.365 299.167,563.66 295.992,563.66 292.464,564.365 292.111,565.424 293.169,565.777 
		295.992,565.777 296.697,566.129 299.519,566.482 	"/>
	<polygon points="416.996,665.967 416.643,666.32 416.29,668.083 417.349,669.495 419.818,669.847 420.877,669.142 421.229,667.731 
		419.465,665.967 	"/>
	<polygon points="299.519,628.219 293.875,629.983 293.875,630.689 295.992,630.336 299.167,629.63 300.93,630.336 302.694,630.336 
		304.106,627.161 301.283,626.808 	"/>
	<polygon points="620.904,661.381 617.376,656.442 615.965,655.736 616.318,657.5 618.435,660.322 622.315,665.967 623.726,666.672 
		623.374,664.909 	"/>
	<polygon points="280.116,557.31 278.705,558.721 278.705,560.485 279.764,561.543 281.88,561.543 282.939,560.838 282.939,558.721 
		282.233,557.663 	"/>
	<polygon points="219.438,476.875 218.379,478.992 218.732,481.109 220.496,482.52 222.613,482.873 224.024,482.167 
		225.788,480.403 225.788,478.287 225.788,477.934 224.377,476.17 221.907,475.817 	"/>
	<polygon points="202.504,464.175 203.563,463.117 203.563,460.647 203.21,460.295 201.093,459.942 199.682,461 199.682,462.764 
		200.387,463.822 	"/>
	<polygon points="311.161,583.063 310.103,584.121 310.103,586.238 310.808,586.944 313.278,586.944 313.983,586.238 
		314.336,584.474 313.278,583.416 	"/>
	<polygon points="289.994,595.058 290.7,596.116 293.169,596.821 295.639,597.174 297.755,594.705 298.004,594.435 298.108,594.352 
		299.167,593.176 301.989,590.119 303.753,586.591 303.4,585.18 301.989,584.827 298.108,586.591 292.464,590.119 289.994,592.941 	
		"/>
	<polygon points="246.955,531.909 252.952,532.615 254.716,531.557 253.658,530.498 247.308,530.498 	"/>
	<polygon points="534.472,685.37 532.709,684.312 532.356,686.781 533.061,687.134 534.472,689.25 535.178,689.603 535.648,689.486 
		536.236,689.603 536.292,689.325 536.589,689.25 536.448,688.545 536.589,687.839 	"/>
	<polygon points="359.492,652.561 353.848,655.383 353.893,655.473 350.673,657.147 347.851,659.264 346.792,661.028 
		347.145,663.145 348.909,664.203 349.262,664.203 351.026,664.203 353.142,663.145 353.653,662.743 354.201,662.439 
		355.612,661.204 358.081,659.264 361.962,656.089 363.373,653.972 362.315,652.561 	"/>
	<polygon points="362.667,644.8 360.551,644.447 359.14,645.858 359.14,648.328 361.256,650.092 363.373,649.386 364.431,647.622 
		364.079,646.211 	"/>
	<polygon points="227.552,525.207 228.963,523.443 232.138,522.384 234.255,520.973 234.333,520.816 234.607,520.62 
		239.194,518.857 240.957,512.506 239.546,511.801 239.546,509.331 240.605,507.567 240.957,505.804 238.135,502.981 
		237.43,500.159 236.724,499.101 229.668,498.042 228.61,497.337 227.199,497.69 223.671,496.984 222.26,498.748 219.832,499.827 
		219.79,499.806 219.539,499.957 219.085,500.159 218.841,500.376 218.027,500.865 215.557,503.334 215.557,503.569 
		214.852,504.745 215.557,506.862 215.557,509.684 214.146,510.39 209.207,511.095 206.738,511.801 206.738,512.859 209.56,512.859 
		213.088,512.154 214.146,512.506 215.557,514.976 217.321,518.151 217.321,520.973 218.732,522.384 220.849,521.679 
		226.493,523.09 	"/>
	<polygon points="601.148,728.762 599.384,726.998 599.032,727.351 601.148,731.584 603.618,735.112 604.676,735.112 
		603.971,733.348 	"/>
	<polygon points="566.928,706.537 566.576,707.595 567.987,710.417 568.692,711.593 568.692,711.829 569.045,712.181 
		570.809,712.887 570.809,711.829 568.692,707.595 	"/>
	<path d="M219.438,463.822l-0.706-1.764l-0.088-0.088l-0.265-0.617l-1.764-1.411h-2.117L213.44,461l-0.353,2.469l1.764,2.117
		l3.175,1.058l0.706,0.706l0.738,0.123l-0.033,0.23h1.411l0.706-1.058l-0.353-1.764L219.438,463.822z M217.674,464.175l-1.764,0.353
		l-1.058-1.058l0.353-2.117h1.411l0.941,0.706h-0.235l0.706,0.353L217.674,464.175z"/>
	<polygon points="142.178,408.436 142.531,410.2 144.648,411.611 148.176,411.963 148.176,411.258 143.942,408.788 	"/>
	<polygon points="208.501,529.793 207.09,532.615 207.443,534.379 208.501,534.026 210.618,531.204 210.265,529.793 	"/>
	<polygon points="209.56,451.475 208.149,450.064 206.032,450.064 205.326,450.77 204.621,451.475 204.621,453.592 206.032,455.356 
		207.796,455.356 208.501,455.356 209.207,455.003 209.913,453.592 	"/>
	<polygon points="582.451,726.998 581.04,726.645 580.334,727.704 580.687,729.115 582.451,730.879 584.215,731.232 583.862,729.82 
			"/>
	<polygon points="275.53,519.209 271.297,517.445 267.769,516.387 268.122,517.093 273.061,519.915 275.53,520.268 	"/>
	<polygon points="111.133,397.852 109.37,397.499 110.428,398.91 114.309,402.086 116.425,402.791 115.72,401.38 	"/>
	<polygon points="153.115,410.2 151.351,409.494 151.351,410.2 154.879,414.433 156.642,414.786 156.29,413.375 	"/>
	<polygon points="445.924,688.545 447.335,687.839 447.394,687.663 447.688,687.487 448.041,685.37 447.335,682.195 
		445.924,680.431 442.043,679.02 440.632,678.863 440.632,678.667 438.868,678.667 437.105,680.431 436.752,682.195 
		437.105,683.371 437.105,683.606 437.81,685.723 439.221,687.487 441.338,688.545 	"/>
	<polygon points="275.069,597.364 275.177,596.821 274.825,595.41 274.472,593.999 273.061,591.883 271.297,590.824 
		268.827,590.824 267.769,591.177 266.005,592.588 265.917,592.72 265.652,592.941 265.476,593.382 264.594,594.705 
		263.183,596.469 258.244,599.644 257.538,601.055 258.597,601.055 263.888,597.527 264.947,597.88 264.947,598.938 261.772,601.76 
		261.419,603.877 262.477,604.935 264.594,604.583 266.711,602.819 266.789,602.662 267.416,602.113 271.65,601.055 
		274.825,598.585 274.841,598.501 275.177,598.233 	"/>
	<polygon points="549.642,686.075 549.642,688.192 551.053,689.603 552.464,689.25 552.817,687.839 551.406,686.428 	"/>
	<polygon points="318.922,673.022 318.57,673.375 318.217,675.139 318.922,675.845 321.039,675.845 321.745,674.786 
		321.039,673.375 	"/>
	<polygon points="246.955,587.649 241.31,590.471 234.607,593.999 228.963,596.821 224.377,599.644 223.671,601.055 
		224.729,601.055 227.904,599.644 232.843,596.821 236.724,594.705 242.016,591.53 249.777,587.296 250.13,586.238 249.424,586.238 
			"/>
	<polygon points="103.725,264.5 104.431,263.089 104.078,260.973 102.667,260.973 101.961,261.678 101.608,263.442 102.314,264.5 	
		"/>
	<polygon points="238.135,538.612 236.371,538.612 230.727,540.376 230.727,541.082 231.785,541.082 237.43,539.671 	"/>
	<polygon points="191.568,441.244 191.921,440.186 190.51,438.069 189.098,437.717 188.746,438.775 189.804,440.892 	"/>
	<polygon points="351.026,652.561 349.262,652.208 347.498,652.914 346.439,652.914 344.676,652.914 343.264,653.972 
		342.559,657.147 340.795,658.206 340.795,658.911 342.206,658.911 346.439,657.147 350.673,653.972 	"/>
	<polygon points="236.724,546.374 237.077,546.021 236.371,544.257 234.255,543.904 233.549,545.315 234.607,546.374 	"/>
	<path d="M339.384,624.339l1.764-2.117l0.353-1.411l-0.706-0.353l-3.528-0.706l-0.706-3.175l2.469,0.353l1.764-1.411v-1.764
		l-1.764-1.058l-2.822-0.353l-0.706,2.117l-0.706,0.353v-3.175l-0.353-0.706l-0.706-2.117h0.706l1.058-1.411v-2.117l-1.411-2.117
		h-2.117l-0.47,0.353h-0.235l-0.706,0.706l-2.117-0.353h-4.233h-0.706l-0.706,0.706l-1.764,3.881l-0.353,1.764l1.058,3.881
		l1.764,2.822l2.117,1.058l0.448,0.081l0.611,0.271l0.371-0.093l2.451,0.446l0.353,1.058l-2.469-0.353l-1.411,0.353h-3.528
		l-1.764-0.353l-1.764,1.411l-3.175,0.706l-1.852,1.058h-0.265l-0.353,0.353l-8.467,3.528l-0.353,1.058l3.175-0.353l3.528-1.411
		l2.198-0.488l2.388-0.217l5.997-0.706l1.764,1.058l6.35,0.353l3.528,1.058l2.058,0.206l-0.294,0.147h1.764l1.411-1.058
		L339.384,624.339z M335.503,619.752h-4.233V619.4h-0.706l0.353-0.706v-0.289l0.584-0.478l0.122,0.061l2.822-2.117v-0.353h0.706
		l0.706,3.175L335.503,619.752z"/>
	<polygon points="245.191,543.904 244.132,543.904 240.957,545.315 240.605,546.726 241.663,546.726 244.485,545.315 	"/>
	<polygon points="616.318,691.014 615.26,689.603 613.849,689.25 613.849,690.662 615.26,692.778 616.318,693.131 	"/>
	<polygon points="312.22,630.336 311.867,630.689 311.867,632.453 312.22,632.805 313.983,632.805 314.689,631.747 313.983,630.689 
			"/>
	<polygon points="502.722,686.428 502.017,685.017 500.958,685.017 500.605,685.37 500.958,687.839 502.369,688.545 	"/>
	<polygon points="367.606,662.086 366.901,662.439 366.901,664.203 367.959,664.909 369.37,664.203 369.017,662.439 	"/>
	<polygon points="230.374,578.83 230.021,579.888 231.785,580.946 233.902,581.299 233.902,580.241 232.138,579.182 	"/>
	<polygon points="78.677,360.104 78.677,361.516 80.089,362.927 81.853,363.279 81.853,362.574 80.089,360.457 	"/>
	<polygon points="196.795,535.02 197.565,534.379 197.498,534.177 197.918,533.673 200.035,531.204 200.387,529.44 198.976,529.44 
		197.918,530.146 194.39,531.557 192.626,532.968 192.352,534.34 192.273,534.379 192.324,534.48 192.273,534.732 192.626,535.085 
		192.979,535.79 193.391,535.849 193.685,536.143 194.567,536.017 195.449,536.143 195.813,535.839 196.154,535.79 	"/>
	<polygon points="214.852,485.342 214.852,486.048 217.674,488.164 219.79,488.87 219.79,488.164 217.674,486.753 	"/>
	<polygon points="612.437,667.731 613.849,668.083 614.907,666.32 614.554,664.909 613.849,664.556 613.143,666.32 	"/>
	<polygon points="606.44,716.062 605.735,716.062 605.382,716.415 605.029,718.179 607.146,718.884 607.146,717.473 	"/>
	<polygon points="538,688.898 537.648,689.25 538.353,691.014 540.117,691.367 539.764,689.603 	"/>
	<polygon points="239.546,558.015 239.37,558.545 238.841,559.074 238.841,561.19 239.899,562.249 242.369,562.602 243.78,561.19 
		243.78,559.074 242.369,557.663 240.252,557.663 	"/>
	<polygon points="586.684,734.054 586.332,735.465 587.743,737.229 588.801,737.229 588.448,735.465 	"/>
	<polygon points="317.864,614.108 318.922,613.755 318.922,611.991 317.511,611.638 316.806,613.049 	"/>
	<polygon points="109.37,261.678 109.017,260.267 107.606,259.914 107.253,261.678 107.958,262.031 	"/>
	<polygon points="607.146,718.884 607.146,721.354 607.498,722.059 608.91,722.059 608.204,719.943 	"/>
	<polygon points="636.779,639.861 636.779,637.744 636.427,637.039 635.368,637.039 635.016,637.391 635.721,639.508 	"/>
	<polygon points="75.15,332.587 75.502,334.704 76.914,335.057 76.561,332.94 	"/>
	<polygon points="486.847,677.256 485.789,676.903 485.436,677.256 486.141,679.373 487.2,679.725 	"/>
	<polygon points="611.379,642.683 612.437,643.742 613.496,643.389 613.143,641.978 611.379,641.625 	"/>
	<polygon points="86.439,296.956 85.38,295.192 84.322,294.84 84.322,296.251 86.086,298.015 	"/>
	<polygon points="572.926,716.415 574.337,716.768 574.337,715.356 572.926,715.004 	"/>
	<polygon points="593.034,691.014 593.034,689.956 591.976,688.898 591.623,690.662 	"/>
	<polygon points="529.886,683.606 531.65,683.959 532.003,682.548 531.297,682.195 	"/>
	<polygon points="226.141,559.074 227.199,559.427 227.904,558.015 226.846,557.663 	"/>
	<polygon points="264.241,514.623 262.83,513.212 261.066,512.859 261.772,513.918 	"/>
	<polygon points="354.906,649.033 354.553,649.386 354.201,650.797 355.259,650.797 355.612,649.033 	"/>
	<polygon points="89.261,233.103 88.555,233.103 87.497,234.161 87.497,235.219 88.555,234.514 	"/>
	<polygon points="169.695,479.698 170.401,480.756 171.812,481.109 171.459,480.05 	"/>
	<polygon points="558.814,697.012 559.167,698.07 560.578,698.07 560.578,697.364 559.167,696.659 	"/>
	<polygon points="487.2,664.203 487.2,665.261 488.611,665.261 488.258,664.203 	"/>
	<polygon points="301.636,645.153 302.694,644.8 302.694,644.094 301.283,643.742 	"/>
	<polygon points="627.254,633.864 628.313,633.864 627.96,632.453 627.254,632.453 	"/>
	<polygon points="298.461,572.832 298.461,571.421 297.755,571.421 297.403,572.832 	"/>
	<polygon points="592.329,752.399 593.387,753.457 593.74,752.399 592.682,752.046 	"/>
	<polygon points="603.971,695.601 605.029,695.601 603.618,694.189 	"/>
	<polygon points="452.274,691.367 453.333,691.72 453.333,690.662 452.274,690.309 	"/>
	<polygon points="485.789,674.786 484.73,674.434 484.73,675.492 485.789,675.845 	"/>
	<polygon points="374.662,665.261 376.073,665.614 376.073,664.556 375.015,664.556 	"/>
	<polygon points="254.01,584.121 253.658,585.18 255.422,584.474 254.716,583.768 	"/>
	<polygon points="290.7,581.299 290.347,582.357 291.405,582.357 291.758,581.299 	"/>
	<polygon points="318.217,607.052 317.511,606.699 317.158,607.758 318.217,608.11 	"/>
	<rect x="285.408" y="560.132" width="1.058" height="1.058"/>
	<polygon points="615.26,633.864 614.201,633.864 614.201,634.569 615.26,634.922 	"/>
	<polygon points="192.979,437.011 192.979,437.717 194.037,438.069 194.037,437.011 	"/>
	<polygon points="478.733,654.325 478.38,655.383 479.438,655.383 479.438,654.678 	"/>
	<polygon points="275.177,627.866 275.883,628.219 276.236,627.161 275.177,627.161 	"/>
	<polygon points="319.628,601.76 318.922,601.76 318.57,602.466 319.628,602.819 	"/>
	<polygon points="243.074,540.376 242.721,541.435 243.78,541.435 243.78,540.729 	"/>
	<rect x="538.353" y="695.248" width="0.706" height="1.058"/>
	<rect x="286.466" y="542.493" width="1.058" height="0.706"/>
	<polygon points="259.655,535.79 259.302,536.496 260.36,536.848 260.36,536.143 	"/>
	<rect x="269.533" y="526.971" width="0.706" height="1.058"/>
	<rect x="222.966" y="469.82" width="0.706" height="1.058"/>
	<polygon points="80.794,324.473 80.794,325.179 81.853,325.532 81.5,324.473 	"/>
	<polygon points="562.695,703.362 563.048,702.303 562.342,702.303 	"/>
	<polygon points="408.176,649.386 409.235,649.033 408.176,648.68 	"/>
	<polygon points="630.782,639.861 630.782,639.155 630.077,638.803 630.077,639.861 	"/>
	<polygon points="624.432,627.161 623.726,627.161 624.079,628.219 	"/>
	<rect x="274.119" y="549.549" width="0.706" height="0.706"/>
	<rect x="265.299" y="535.437" width="0.706" height="0.706"/>
	<rect x="281.175" y="529.793" width="0.706" height="0.706"/>
	<rect x="186.276" y="510.743" width="0.706" height="0.706"/>
	<polygon points="254.01,509.331 252.952,509.331 253.658,510.037 	"/>
	<rect x="185.571" y="483.225" width="0.706" height="0.706"/>
	<polygon points="613.143,661.733 613.496,662.439 613.849,661.733 	"/>
	<polygon points="71.269,311.068 71.975,310.715 71.269,310.362 	"/>
	<path d="M717.116,451.727l-0.027-0.19l-0.176-0.353l-0.529-1.411l-0.941-2.117l-0.47-2.117v-2.822l-0.353-0.706l-0.77-0.866
		l-0.641-0.898l-0.706-0.617l-0.706-0.794l-2.587-2.117l-2.352-2.117l-0.809-0.623l-1.66-1.494l-0.078,0.157l-2.038-1.568
		l-6.703-4.939l-4.939-3.881l-3.528-1.411h-3.881l-5.997-0.353l-5.997-1.058l-5.292-1.411l-3.175-2.117l-2.469-2.822l-2.469-2.117
		l-4.586-3.528l-4.233-2.822l-2.646-1.852l-1.262-1.052l-2.09-2.388h-0.027l-2.09-2.469l-3.528-3.175l-3.175-2.469l-7.056-5.292
		l-5.292-4.586l-2.822-1.058l-3.175-1.764l-1.411,0.706l0.353,4.939l0.706,0.706l2.822,1.411l2.822,2.469l4.939,4.233l3.175,3.528
		l2.117,3.175l-0.706-0.353l-2.822-2.117l-4.939-3.175l-5.645-3.881l-5.997-4.586l-3.528-2.822l-5.292-5.292l-2.469-3.881
		l-1.411-3.881l0.353-2.117l0.353-1.764l-3.528-5.292l-4.586-6.35l-1.94-2.293l-1.588-1.94l-0.97-1.058l-1.852-2.117l-2.117-2.293
		l-2.552-2.978l-1.211-1.902l-0.882-1.764l-0.294-2.352l-3.528-2.822l-1.764-0.353l-0.353,1.764l-2.822-1.764l-3.175-2.469
		l-3.528-2.822l-0.027,0.054l-4.559-3.582l-4.233-3.881l-2.469-2.822l-4.233-4.233l-4.939-3.528l-3.175-2.469l-3.175-3.881
		l-3.175-4.233l-0.446-0.501l-0.966-1.263l-0.223-0.074l-1.188-1.337l-4.233-3.881l-1.411-0.706v-0.706h-0.706v-0.706l-1.764-1.764
		l-3.881-4.939l-2.822-3.528l-2.117-2.822h0.47l1.069,0.321l2.694,1.796l1.411,0.706l1.764,1.058l0.529,0.088l0.529,0.265
		l0.423-0.106l0.635,0.106l0.353-0.353v-1.764l-1.411-1.411l-3.528-1.764l-3.528-1.411l-2.47-0.353l-0.706,0.706h-0.706
		l-1.058-0.706l-1.058-2.469l-0.353-2.117l1.058-2.469l1.058-2.469l1.411-2.117l-0.353-2.469l0.706-3.528l-0.353-2.117v-2.469h1.764
		l0.353-1.411l-2.47-1.411l-2.822-4.233l-0.353-2.822l-2.822,0.706l-2.734-1.367l-1.852-2.161h-1.764h-1.058v-1.411l2.469-4.939
		l-0.706-1.411l-1.411-0.706l-0.321-1.283l0.321-2.245l3.881-2.822l1.764-2.117l-1.764,0.353h-2.822l-0.706,1.764l-1.058,0.454
		l-1.764,0.252l-0.706-2.117l-1.058-1.058l-2.117-1.411l-3.528-0.706l-3.528,1.058v-2.469l-0.353-0.706l-1.411-1.764l-1.058-1.764
		l-1.764-2.822l-0.182-0.096l-0.171-0.257l-2.979-1.411l-2.665-1.411l-0.06,0.12l-0.44-0.208l-3.381-2.028l-0.635,0.106
		l-0.423-0.106v0.176l-1.058,0.176l-3.881-0.353v-1.764l0.706-1.764l-0.353-1.764l-1.411-3.175l-0.706-4.586l-3.175-2.822
		l-3.528-1.058l-6.35-0.706v-2.117h1.058l0.244-0.326l0.109-0.027l0.128-0.289l0.577-0.77l1.05-2.363l0.714-0.51v0.05l1.411-1.058
		l0.353-1.764h-0.706v-0.706v-4.586l2.469-1.411l3.175-3.528h2.117l0.353-1.058l-1.058-1.411l-2.469-3.175l-2.117-4.233h-4.233
		l-1.411-0.353l-0.353-1.764l-1.411,0.353l-0.706,1.411h-2.117h-2.822l-2.822,1.411l-1.411,0.706l0.353-0.706l4.233-3.528
		l0.353-1.411h-1.058l-2.469,2.117l-1.905,1.482l-2.328,1.693l-2.117,0.353l-1.764-1.058l-1.058-1.764l-0.353-1.764l1.764-1.411
		l0.353-1.411l-1.411-1.058l-2.117,0.706l-1.764,1.058l0.353,1.411l0.353,1.764h-3.528l-1.058-0.353l-2.117-2.469l-1.764-0.353
		l-1.058,2.469l-0.353,1.764l-2.117,0.353v0.071l-1.411,0.282l-2.822,0.353l0.353-0.706l1.411-0.706v-1.411l-3.175-1.411
		l-1.162-0.145l0.104-0.208h-1.764l-0.706,0.706v2.117l-0.706,1.411l-3.881,2.117l-0.353,1.058l1.411,0.706l-0.353,1.058
		l-1.058,3.175l0.353,1.764l0.225,1.347l-0.225,1.122l-0.235,1.411l-0.118,0.353h0.059l-0.005,0.027l-0.054-0.027l0.044,0.088
		l-0.044,0.265l0.706,1.058l2.469,0.706l-0.353,3.175h-2.822l-5.645-1.411l-4.939-1.411h-3.528l-3.881-3.528l-3.175-4.586
		l-3.528-5.292l-4.586-6.35l-2.117-3.881l-2.469-2.469l-2.117-0.353l-0.706,0.706l-0.353,2.117h0.05l-0.05,0.353l1.411,4.233
		l-1.058-0.353l-1.411,0.353l-0.353,2.117l0.706,0.706h1.764l0.706-1.411l0.706,0.353l7.761,11.642l2.117,3.528l-2.117-0.706
		l-2.822-2.822l-1.411-0.706l-0.353,1.764l1.058,2.822h-6.35l-2.117-1.411l-3.528-3.175l-2.822-2.469l-1.764-0.353v1.764
		l1.764,2.822l3.528,3.881l2.822,3.881l-3.528-2.469l-2.117-2.469l-3.881-4.586l-1.836-2.571l2.667-0.667l0.353-1.411l-1.411-0.353
		l-1.058,0.353l-1.324,0.993l-0.917-1.284l-2.469-2.822l-1.764-0.353l-0.706,0.706l0.353,1.764l2.469,3.881l0.706,1.764
		l-2.822-1.764l-2.312-2.312l0.32-1.279l-0.706-1.411l-1.411-0.706l-0.689,0.345l-0.494-0.635l-1.764-1.764l-0.353,1.411
		l0.664,0.996h-1.245l-0.091,0.091l-0.034-0.028l-1.411-0.706v-0.706h-0.706v-0.706l-0.706-0.353l-4.939-4.939l-5.645-7.056
		l-1.411-0.353v1.058l1.764,2.822l2.822,4.586l3.175,4.233l3.881,4.586l0.873,1.222l-0.042,0.127l0.466,0.466l2.232,3.124
		l3.528,3.881l0.706,1.764l-2.469-1.411v0.059l-0.353-0.294v-0.118l-0.934-0.747v-2.138l-1.764-1.058l-2.469-1.764l-3.881-2.117
		l-0.437-0.249l-4.436-4.436l0.639-0.959l-0.353-1.764l-2.736,0.274l-1.27-1.27l-2.469-2.822l-1.64-1.822l0.001-0.004v-1.411
		l2.469-0.353l1.058-1.058l-0.353-1.058l-1.764-1.411l-6.35-2.822l-3.528-2.822l-0.843-0.316l-0.693-1.385l-0.706-1.411
		l-1.764-0.353l-1.042,0.347l-0.245-1.468l2.822-2.117l2.822-2.469l4.233,0.353l0.756,0.069l-0.175,0.699l0.39,0.52l-0.037,0.186
		l0.706,0.706l2.117,2.822l1.411,2.117l3.881,3.881l2.469,3.175l2.822,2.469l1.764,2.469l3.881,4.233h1.764l0.353-0.706l1.764-1.411
		l2.469-0.353l0.706-0.706l0.353-1.764l-2.117-3.175h-0.706v-0.706l-1.764-1.411l-1.764-0.706l-0.706,1.058l-2.822-0.353
		l0.353,1.764l1.058,2.117h-1.764l-3.175-3.528l-1.058-2.469l-1.411-1.058l-0.353-1.411l2.469-0.706l1.411-2.469v-2.469
		l-1.058-1.764l-2.117-1.411h-2.822l-1.411,0.353l-1.058-2.469l-2.469-2.822h-1.764l-0.145,0.145l-4.316-1.619l-5.645-2.822
		l-3.528-1.411l-0.578-0.178l-0.958-1.171l-1.764-0.353l-0.159,0.637l-1.127-0.347h-3.881l-3.175,1.058l-1.764-1.058l-3.175-2.117
		l-3.175-1.411h-2.822l-0.706,0.706l-0.353,1.411l0.706,1.058l6.35,4.233h-1.411l-5.997-2.117l-2.469-1.764l-3.528-1.764
		l-4.233,0.353l-5.292-2.822l-2.469-0.353l-0.353,0.353l-0.353,1.411l0.741,0.988l-0.513-0.22l-3.528-4.586l-3.881-5.645
		l-2.822-3.528l-1.411-0.353v3.175l4.233,7.408l1.764,4.586l-0.706-0.353h-2.117l0.353-1.058h-1.058v1.501l-0.228-0.152
		l-1.764,0.353l-0.093,0.155l-3.207-2.915l-3.881-4.233l-2.117-3.175l-2.117-2.469l-1.411-1.411l-1.411-2.822l-1.764-1.058
		l-1.764-3.175h-0.706v-0.706l-2.822-4.233l-4.939-7.056l-1.411-2.469l-2.117-2.822l-3.528-4.586l-4.939-6.35l-3.528-5.292
		l-1.411-2.822l-0.353-2.822l2.822,0.353v-1.764l-1.283-1.924l-2.245-5.131l-1.058-3.175h-1.058l-1.058,2.117v4.233l1.058,4.233
		l1.058,5.997l1.058,3.528l2.117,4.233l3.175,6.703l2.822,4.586l2.117,3.175l1.058,1.764l1.764,2.822l1.058,2.469l1.058,1.058
		l3.175,3.881l3.175,4.233l2.117,3.175l0.706,2.117l1.411,1.411l1.411,1.764l9.525,12.7l1.21,1.361l0.907,1.109l2.352,2.94
		l0.426,0.579l-2.301-1.464l-3.528-2.469l-0.168-0.024l-0.662-1.325l-1.764-1.764l-1.411-1.764l-1.764-2.117l-0.706-2.469
		l-1.764-0.706l-0.353-2.469h-1.764l-0.353-1.764l-1.764-0.353l-1.058-1.764l-1.411-2.117l-2.822-3.881l-1.411-2.117l-2.117-2.469
		l-1.411-3.175l-1.764-1.058l-2.822-3.881l-2.117-3.528l-2.469-0.353l0.353,2.117l3.528,6.703l2.846,5.95l-0.024,0.047l1.058,2.117
		l-1.058-0.794l-1.058-1.323l-1.764-1.764l-6.35-9.172l-1.136-1.609l0.077-0.155l-3.175-4.233l-2.469-2.822l-1.411-0.706v1.058
		l1.764,2.822l1.058,2.117l2.117,3.528l3.528,4.586l0.118,0.118l2.352,3.057l2.469,3.528l2.117,2.822l3.528,4.586l2.117,3.881
		l1.058,1.058l1.764,3.175l1.764,2.117l0.77,1.283l-0.064,0.128l1.411,2.117h-1.058l-0.353-1.058l-1.764-0.706v-0.706l-1.411-1.411
		l-1.411-0.706v-0.706l-1.764-2.117l-1.764-1.764l-1.411-1.764l-1.411-0.353l-1.411,0.706v-2.822l-0.706-0.353l-1.411-1.764
		l-1.058-2.117l-1.411-1.764l-1.411-0.706l0.353-1.058l-0.353-0.706l-2.469-0.706l0.353-2.117l-1.764-0.353l-0.353-3.175h-2.117
		l0.706-1.411l-0.353-1.411l-1.764,0.353v-2.469l-1.411-2.117l-1.764-2.117l-1.411-0.353v8.114l0.353,1.411l0.706,2.117l0.706,1.058
		l1.764,0.706l1.058,3.175l1.411,0.353l1.058-0.706h2.117l-1.058,0.353l-1.411,1.411v1.058l1.058,1.411l2.117,1.058l0.706,1.764
		l2.117-0.353l1.764,1.058l0.706,2.469l-0.353,0.706l-0.353,1.411l1.764,0.706l1.411,4.233l1.058,1.058l0.353,1.411l1.058,1.764
		l0.706,2.117l1.411,2.117l1.058,2.469l1.411,1.411l1.411,2.469l0.216,0.575l-0.796-0.284l-1.728,0.288l-0.514-1.284l-1.764-2.469
		h-0.706l-1.058-3.175l-1.058-0.706l-2.117-3.881l-1.411-0.706l-3.881-6.703l-1.411-0.706v-2.117l-0.706-0.353l-1.764,0.353
		l0.353-1.764l-1.058-1.058h-1.411l0.353,2.117l-1.058-0.353l-1.058-1.764l-1.058-0.353l-0.706,1.764l-0.353,1.411l1.411,1.058
		v1.058l-0.353,2.469l0.706,0.353l1.411,3.528l1.411,1.411l0.706,1.764l1.058,1.764l-1.411-0.353l0.353,1.058l1.058,2.469
		l1.058,0.706l-2.469-0.353l-2.469-3.528l-2.117-3.528l-3.528-5.292l-2.117-3.528l-1.764-2.822l-1.764,0.353v1.764l0.706,1.058
		l1.058,3.175l1.058,2.469l0.529,0.706l1.94,3.881l2.117,2.822l2.469,4.586v2.117l-1.235,1.235l-0.529-0.529l-0.706-1.411
		l-1.764-1.058l-1.764-2.117l-2.822-3.881l-3.528-5.645v-2.469l0.706-0.353v-1.058h-1.411l-1.058,0.706v3.175l1.411,3.175
		l2.822,5.645l1.058,2.822l1.411,2.469l3.175,5.292l3.528,6.703l3.175,5.645l1.411,0.706v0.706l3.175,5.292l2.469,3.528l2.117,3.175
		l1.178,2.828l-0.079,1.184l-0.394-0.131l-2.117-2.469l-3.881-4.586l-1.764-1.764l-1.411-3.175l-1.058-0.706l-0.706-1.411v-2.469
		l-1.058-1.058l-1.411-0.353l-1.058,0.706l-0.353,2.822h-0.706l-2.117-2.822l-0.706-2.469l-1.764-2.469l-3.175,0.706l0.353,1.058
		l2.822,5.645l1.058,3.881l1.058,5.645l1.484,3.265l-0.301,0.201l-0.042,0.104l-0.789-0.394l-0.706,0.353v2.469l0.353,1.058
		l1.411,1.764l1.362,1.93l0.173,0.477l-0.208,2.076l-1.328-1.66l-1.058-1.764l-1.058-1.411l-0.353,1.411l0.706,1.058l0.706,1.058
		l1.342,2.46l-2.275-0.758l-0.795-0.099l-0.388-0.544l-3.528-4.586l-2.469-3.881l-4.586-6.703l-1.058-3.175l-1.058-1.058
		l-9.878-14.817l-1.764-1.411l-1.764-0.353l0.353,1.764l1.764,4.233l1.764,2.822l4.939,8.82l4.939,7.408l1.764,3.175l4.586,7.408
		l1.411,1.764l2.754,4.407l-0.513,1.881l0.353,3.175l-2.822-0.353l-6.006-2.892l-0.116-0.926l-0.706-1.764l-4.233-4.233
		l-1.058-2.469l-2.117-3.881l-2.469-3.528l-1.764-0.706l-0.353,1.411l2.469,4.586l3.175,4.233l1.058,1.764l2.373,3.757l-6.129-1.702
		l-4.586-3.175l-2.117-0.353v1.058l1.411,1.411l4.233,3.881l-0.353,3.881h-1.058l-0.706-0.706l-4.939-2.822l-2.117-0.353
		l-0.353,1.058l2.469,2.822l0.353,1.764h-2.469l-0.706-0.353l-2.469-2.117l-3.881-2.469l-1.764-0.353l-0.353,1.411l2.117,2.469
		l2.822,3.881l4.586,5.645l3.175,4.586l0.353,2.469h-1.764l-6.35-6.35l-1.764-0.353v1.411l1.411,2.469v2.117l-0.353,0.353v1.764
		l1.058,2.822l0.353,1.764h-2.117l-4.233-1.411l-2.117-0.353l0.353,4.586l-1.764,0.353l-2.469-1.058l-2.469-1.764l-2.117-1.411
		l-1.058,0.353l-1.411,2.822l0.353,1.058l1.764,1.411l1.764,0.706v1.411l2.822,4.233l0.353,2.469l-0.706,2.469l-1.764-0.353
		l-3.175-2.469l-2.469-2.822h-0.706v-0.706l-1.411-1.411l-1.411-0.706v0.706l3.881,4.586l0.353,1.411h-0.706l-4.233-2.469
		l-1.764-0.706v1.058l0.706,1.058l1.411,3.881l-3.175-1.058h-2.117l-0.706,0.706l-2.117,2.822v4.586l2.117,0.706l3.528,2.822
		l2.469,2.117l1.764,1.764v4.586h-1.411l-3.175-1.764l-7.408-2.117l-3.175-0.353v1.764l0.353,0.353l3.175,4.939l2.469,4.586
		l-2.117-0.353l-2.469-0.353l-0.353,0.353v4.586l-0.706,2.822l0.05,0.202l-0.403,1.21l-0.353,1.058l-1.764,2.117v0.132l-2.469,3.396
		h-2.117l-1.764-0.706l-0.706,0.353l2.117,1.764v1.764l-1.411,1.058l-1.058,2.469l-5.292,5.292l-1.764,0.706l-1.058,2.469
		l-1.764,0.353l-1.411-1.058h-1.764l-1.058,3.881l-2.469-1.058l-0.353,1.764l1.058,3.175l-2.822-0.706v1.058l0.163-0.081l0.19,1.14
		l-1.764-1.058l-1.411-0.706l0.353,4.939l1.411,3.175l0.706,3.175l-1.058-0.353v1.764l0.706,3.528l-1.764-0.706l-0.706,0.706
		l-0.353,4.939l-1.411,0.706l0.088,0.088l-0.441,0.265v3.528l-0.706,1.764v6.35v1.764l1.411,3.881v2.469v1.764l1.058,3.175
		l1.411,6.35l-2.469-1.764l-1.411-0.353v1.764l-0.302,1.512l-0.403,0.605l0.118,0.823l-0.118,0.588l0.326,0.868l0.027,0.19
		l0.176,0.353l0.529,1.411l0.941,2.117l0.47,2.117v2.822l0.353,0.706l0.77,0.866l0.641,0.898l0.706,0.617l0.706,0.794l2.587,2.117
		l2.352,2.117l0.809,0.623l1.66,1.494l0.078-0.157l2.038,1.568l6.703,4.939l4.939,3.881l3.528,1.411h3.881l5.997,0.353l5.997,1.058
		l5.292,1.411l3.175,2.117l2.469,2.822l2.469,2.117l4.586,3.528l4.233,2.822l2.646,1.852l1.262,1.052l2.09,2.388h0.027l2.09,2.469
		l3.528,3.175l3.175,2.469l7.056,5.292l5.292,4.586l2.822,1.058l3.175,1.764l1.411-0.706l-0.353-4.939l-0.706-0.706l-2.822-1.411
		l-2.822-2.469l-4.939-4.233l-3.175-3.528l-2.117-3.175l0.706,0.353l2.822,2.117l4.939,3.175l5.645,3.881l5.997,4.586l3.528,2.822
		l5.292,5.292l2.469,3.881l1.411,3.881l-0.353,2.117l-0.353,1.764l3.528,5.292l4.586,6.35l1.94,2.293l1.588,1.94l0.97,1.058
		l1.852,2.117l2.117,2.293l2.552,2.978l1.211,1.902l0.882,1.764l0.294,2.352l3.528,2.822l1.764,0.353l0.353-1.764l2.822,1.764
		l3.175,2.469l3.528,2.822l0.027-0.054l4.559,3.582l4.233,3.881l2.469,2.822l4.233,4.233l4.939,3.528l3.175,2.469l3.175,3.881
		l3.175,4.233l0.446,0.501l0.966,1.263l0.223,0.074l1.188,1.337l4.233,3.881l1.411,0.706v0.706h0.706v0.706l1.764,1.764l3.881,4.939
		l2.822,3.528l2.117,2.822h-0.47l-1.069-0.321l-2.694-1.796l-1.411-0.706l-1.764-1.058l-0.529-0.088l-0.529-0.265l-0.423,0.106
		l-0.635-0.106l-0.353,0.353v1.764l1.411,1.411l3.528,1.764l3.528,1.411l2.469,0.353l0.706-0.706h0.706l1.058,0.706l1.058,2.469
		l0.353,2.117l-1.058,2.469l-1.058,2.469l-1.411,2.117l0.353,2.469l-0.706,3.528l0.353,2.117v2.469h-1.764l-0.353,1.411l2.469,1.411
		l2.822,4.233l0.353,2.822l2.822-0.706l2.734,1.367l1.852,2.161h1.764h1.058v1.411l-2.469,4.939l0.706,1.411l1.411,0.706
		l0.321,1.283l-0.321,2.245l-3.881,2.822l-1.764,2.117l1.764-0.353h2.822l0.706-1.764l1.058-0.454l1.764-0.252l0.706,2.117
		l1.058,1.058l2.117,1.411l3.528,0.706l3.528-1.058v2.469l0.353,0.706l1.411,1.764l1.058,1.764l1.764,2.822l0.182,0.096l0.171,0.257
		l2.979,1.411l2.665,1.411l0.06-0.12l0.44,0.208l3.381,2.029l0.635-0.106l0.423,0.106v-0.176l1.058-0.176l3.881,0.353v1.764
		l-0.706,1.764l0.353,1.764l1.411,3.175l0.706,4.586l3.175,2.822l3.528,1.058l6.35,0.706v2.117h-1.058l-0.244,0.326l-0.109,0.027
		l-0.128,0.289l-0.577,0.77l-1.05,2.363l-0.714,0.51v-0.05l-1.411,1.058l-0.353,1.764h0.706v0.706v4.586l-2.469,1.411l-3.175,3.528
		h-2.117l-0.353,1.058l1.058,1.411l2.469,3.175l2.117,4.233h4.233l1.411,0.353l0.353,1.764l1.411-0.353l0.706-1.411h2.117h2.822
		l2.822-1.411l1.411-0.706l-0.353,0.706l-4.233,3.528l-0.353,1.411h1.058l2.469-2.117l1.905-1.482l2.328-1.693l2.117-0.353
		l1.764,1.058l1.058,1.764l0.353,1.764l-1.764,1.411l-0.353,1.411l1.411,1.058l2.117-0.706l1.764-1.058l-0.353-1.411l-0.353-1.764
		h3.528l1.058,0.353l2.117,2.469l1.764,0.353l1.058-2.469l0.353-1.764l2.117-0.353v-0.071l1.411-0.282l2.822-0.353l-0.353,0.706
		l-1.411,0.706v1.411l3.175,1.411l1.162,0.145l-0.104,0.208h1.764l0.706-0.706v-2.117l0.706-1.411l3.881-2.117l0.353-1.058
		l-1.411-0.706l0.353-1.058l1.058-3.175l-0.353-1.764l-0.225-1.347l0.225-1.122l0.235-1.411l0.118-0.353h-0.059l0.005-0.027
		l0.054,0.027l-0.044-0.088l0.044-0.265l-0.706-1.058l-2.469-0.706l0.353-3.175h2.822l5.645,1.411l4.939,1.411h3.528l3.881,3.528
		l3.175,4.586l3.528,5.292l4.586,6.35l2.117,3.881l2.469,2.469l2.117,0.353l0.706-0.706l0.353-2.117h-0.05l0.05-0.353l-1.411-4.233
		l1.058,0.353l1.411-0.353l0.353-2.117l-0.706-0.706h-1.764l-0.706,1.411l-0.706-0.353l-7.761-11.642l-2.117-3.528l2.117,0.706
		l2.822,2.822l1.411,0.706l0.353-1.764l-1.058-2.822h6.35l2.117,1.411l3.528,3.175l2.822,2.469l1.764,0.353v-1.764l-1.764-2.822
		l-3.528-3.881l-2.822-3.881l3.528,2.469l2.117,2.469l3.881,4.586l1.836,2.571l-2.667,0.667l-0.353,1.411l1.411,0.353l1.058-0.353
		l1.324-0.993l0.917,1.284l2.469,2.822l1.764,0.353l0.706-0.706l-0.353-1.764l-2.469-3.881l-0.706-1.764l2.822,1.764l2.312,2.312
		l-0.32,1.279l0.706,1.411l1.411,0.706l0.689-0.345l0.494,0.635l1.764,1.764l0.353-1.411l-0.664-0.996h1.245l0.091-0.091
		l0.034,0.028l1.411,0.706v0.706h0.706v0.706l0.706,0.353l4.939,4.939l5.645,7.056l1.411,0.353v-1.058l-1.764-2.822l-2.822-4.586
		l-3.175-4.233l-3.881-4.586l-0.873-1.222l0.042-0.127l-0.466-0.466l-2.232-3.124l-3.528-3.881l-0.706-1.764l2.469,1.411v-0.059
		l0.353,0.294v0.118l0.934,0.747v2.138l1.764,1.058l2.469,1.764l3.881,2.117l0.437,0.249l4.436,4.436l-0.639,0.959l0.353,1.764
		l2.736-0.274l1.27,1.27l2.469,2.822l1.64,1.822l-0.001,0.004v1.411l-2.469,0.353l-1.058,1.058l0.353,1.058l1.764,1.411l6.35,2.822
		l3.528,2.822l0.843,0.316l0.693,1.385l0.706,1.411l1.764,0.353l1.042-0.347l0.245,1.468l-2.822,2.117l-2.822,2.469l-4.233-0.353
		l-0.756-0.069l0.175-0.699l-0.39-0.52l0.037-0.186l-0.706-0.706l-2.117-2.822l-1.411-2.117l-3.881-3.881l-2.469-3.175l-2.822-2.469
		l-1.764-2.469l-3.881-4.233h-1.764l-0.353,0.706l-1.764,1.411l-2.469,0.353l-0.706,0.706l-0.353,1.764l2.117,3.175h0.706v0.706
		l1.764,1.411l1.764,0.706l0.706-1.058l2.822,0.353l-0.353-1.764l-1.058-2.117h1.764l3.175,3.528l1.058,2.469l1.411,1.058
		l0.353,1.411l-2.469,0.706l-1.411,2.469v2.469l1.058,1.764l2.117,1.411h2.822l1.411-0.353l1.058,2.469l2.469,2.822h1.764
		l0.145-0.145l4.316,1.619l5.645,2.822l3.528,1.411l0.578,0.178l0.958,1.171l1.764,0.353l0.159-0.637l1.127,0.347h3.881l3.175-1.058
		l1.764,1.058l3.175,2.117l3.175,1.411h2.822l0.706-0.706l0.353-1.411l-0.706-1.058l-6.35-4.233h1.411l5.997,2.117l2.469,1.764
		l3.528,1.764l4.233-0.353l5.292,2.822l2.469,0.353l0.353-0.353l0.353-1.411l-0.741-0.988l0.513,0.22l3.528,4.586l3.881,5.645
		l2.822,3.528l1.411,0.353v-3.175l-4.233-7.408l-1.764-4.586l0.706,0.353h2.117l-0.353,1.058h1.058v-1.501l0.228,0.152l1.764-0.353
		l0.093-0.155l3.207,2.915l3.881,4.233l2.117,3.175l2.117,2.469l1.411,1.411l1.411,2.822l1.764,1.058l1.764,3.175h0.706v0.706
		l2.822,4.233l4.939,7.056l1.411,2.469l2.117,2.822l3.528,4.586l4.939,6.35l3.528,5.292l1.411,2.822l0.353,2.822l-2.822-0.353v1.764
		l1.283,1.924l2.245,5.131l1.058,3.175h1.058l1.058-2.117v-4.233l-1.058-4.233l-1.058-5.997l-1.058-3.528l-2.117-4.233l-3.175-6.703
		l-2.822-4.586l-2.117-3.175l-1.058-1.764l-1.764-2.822l-1.058-2.469l-1.058-1.058l-3.175-3.881l-3.175-4.233l-2.117-3.175
		l-0.706-2.117l-1.411-1.411l-1.411-1.764l-9.525-12.7l-1.21-1.361l-0.907-1.109l-2.352-2.94l-0.426-0.579l2.301,1.464l3.528,2.469
		l0.168,0.024l0.662,1.325l1.764,1.764l1.411,1.764l1.764,2.117l0.706,2.469l1.764,0.706l0.353,2.469h1.764l0.353,1.764l1.764,0.353
		l1.058,1.764l1.411,2.117l2.822,3.881l1.411,2.117l2.117,2.469l1.411,3.175l1.764,1.058l2.822,3.881l2.117,3.528l2.469,0.353
		l-0.353-2.117l-3.528-6.703l-2.846-5.95l0.024-0.047l-1.058-2.117l1.058,0.794l1.058,1.323l1.764,1.764l6.35,9.172l1.136,1.609
		l-0.077,0.155l3.175,4.233l2.469,2.822l1.411,0.706v-1.058l-1.764-2.822l-1.058-2.117l-2.117-3.528l-3.528-4.586l-0.118-0.118
		l-2.352-3.057l-2.469-3.528l-2.117-2.822l-3.528-4.586l-2.117-3.881l-1.058-1.058l-1.764-3.175l-1.764-2.117l-0.77-1.283
		l0.064-0.128l-1.411-2.117h1.058l0.353,1.058l1.764,0.706v0.706l1.411,1.411l1.411,0.706v0.706l1.764,2.117l1.764,1.764
		l1.411,1.764l1.411,0.353l1.411-0.706v2.822l0.706,0.353l1.411,1.764l1.058,2.117l1.411,1.764l1.411,0.706l-0.353,1.058
		l0.353,0.706l2.469,0.706l-0.353,2.117l1.764,0.353l0.353,3.175h2.117l-0.706,1.411l0.353,1.411l1.764-0.353v2.469l1.411,2.117
		l1.764,2.117l1.411,0.353v-8.114l-0.353-1.411l-0.706-2.117l-0.706-1.058l-1.764-0.706l-1.058-3.175l-1.411-0.353l-1.058,0.706
		h-2.117l1.058-0.353l1.411-1.411v-1.058l-1.058-1.411l-2.117-1.058l-0.706-1.764l-2.117,0.353l-1.764-1.058l-0.706-2.469
		l0.353-0.706l0.353-1.411l-1.764-0.706l-1.411-4.233l-1.058-1.058l-0.353-1.411l-1.058-1.764l-0.706-2.117l-1.411-2.117
		l-1.058-2.469l-1.411-1.411l-1.411-2.469l-0.216-0.575l0.796,0.284l1.728-0.288l0.514,1.284l1.764,2.469h0.706l1.058,3.175
		l1.058,0.706l2.117,3.881l1.411,0.706l3.881,6.703l1.411,0.706v2.117l0.706,0.353l1.764-0.353l-0.353,1.764l1.058,1.058h1.411
		l-0.353-2.117l1.058,0.353l1.058,1.764l1.058,0.353l0.706-1.764l0.353-1.411l-1.411-1.058v-1.058l0.353-2.469l-0.706-0.353
		l-1.411-3.528l-1.411-1.411l-0.706-1.764l-1.058-1.764l1.411,0.353l-0.353-1.058l-1.058-2.469l-1.058-0.706l2.469,0.353
		l2.469,3.528l2.117,3.528l3.528,5.292l2.117,3.528l1.764,2.822l1.764-0.353v-1.764l-0.706-1.058l-1.058-3.175l-1.058-2.469
		l-0.529-0.706l-1.94-3.881l-2.117-2.822l-2.469-4.586v-2.117l1.235-1.235l0.529,0.529l0.706,1.411l1.764,1.058l1.764,2.117
		l2.822,3.881l3.528,5.645v2.469l-0.706,0.353v1.058h1.411l1.058-0.706v-3.175l-1.411-3.175l-2.822-5.645l-1.058-2.822l-1.411-2.469
		l-3.175-5.292l-3.528-6.703l-3.175-5.645l-1.411-0.706v-0.706l-3.175-5.292l-2.469-3.528l-2.117-3.175l-1.178-2.828l0.079-1.184
		l0.394,0.131l2.117,2.469l3.881,4.586l1.764,1.764l1.411,3.175l1.058,0.706l0.706,1.411v2.469l1.058,1.058l1.411,0.353l1.058-0.706
		l0.353-2.822h0.706l2.117,2.822l0.706,2.469l1.764,2.469l3.175-0.706l-0.353-1.058l-2.822-5.645l-1.058-3.881l-1.058-5.645
		l-1.484-3.265l0.301-0.201l0.042-0.104l0.789,0.394l0.706-0.353v-2.469l-0.353-1.058l-1.411-1.764l-1.362-1.93l-0.174-0.477
		l0.208-2.076l1.328,1.66l1.058,1.764l1.058,1.411l0.353-1.411l-0.706-1.058l-0.706-1.058l-1.342-2.46l2.275,0.758l0.795,0.099
		l0.388,0.544l3.528,4.586l2.469,3.881l4.586,6.703l1.058,3.175l1.058,1.058l9.878,14.817l1.764,1.411l1.764,0.353l-0.353-1.764
		l-1.764-4.233l-1.764-2.822l-4.939-8.82l-4.939-7.408l-1.764-3.175l-4.586-7.408l-1.411-1.764l-2.754-4.407l0.513-1.881
		l-0.353-3.175l2.822,0.353l6.006,2.892l0.116,0.926l0.706,1.764l4.233,4.233l1.058,2.469l2.117,3.881l2.469,3.528l1.764,0.706
		l0.353-1.411l-2.469-4.586l-3.175-4.233l-1.058-1.764l-2.373-3.757l6.129,1.702l4.586,3.175l2.117,0.353v-1.058l-1.411-1.411
		l-4.233-3.881l0.353-3.881h1.058l0.706,0.706l4.939,2.822l2.117,0.353l0.353-1.058l-2.469-2.822l-0.353-1.764h2.469l0.706,0.353
		l2.469,2.117l3.881,2.469l1.764,0.353l0.353-1.411l-2.117-2.469l-2.822-3.881l-4.586-5.645l-3.175-4.586l-0.353-2.469h1.764
		l6.35,6.35l1.764,0.353v-1.411l-1.411-2.469v-2.117l0.353-0.353v-1.764l-1.058-2.822l-0.353-1.764h2.117l4.233,1.411l2.117,0.353
		l-0.353-4.586l1.764-0.353l2.469,1.058l2.469,1.764l2.117,1.411l1.058-0.353l1.411-2.822l-0.353-1.058l-1.764-1.411l-1.764-0.706
		v-1.411l-2.822-4.233l-0.353-2.469l0.706-2.469l1.764,0.353l3.175,2.469l2.469,2.822h0.706v0.706l1.411,1.411l1.411,0.706v-0.706
		l-3.881-4.586l-0.353-1.411h0.706l4.233,2.469l1.764,0.706v-1.058l-0.706-1.058l-1.411-3.881l3.175,1.058h2.117l0.706-0.706
		l2.117-2.822v-4.586l-2.117-0.706l-3.528-2.822l-2.469-2.117l-1.764-1.764v-4.586h1.411l3.175,1.764l7.408,2.117l3.175,0.353
		v-1.764l-0.353-0.353l-3.175-4.939l-2.469-4.586l2.117,0.353l2.469,0.353l0.353-0.353v-4.586l0.706-2.822l-0.05-0.202l0.403-1.21
		l0.353-1.058l1.764-2.117v-0.132l2.469-3.396h2.117l1.764,0.706l0.706-0.353l-2.117-1.764v-1.764l1.411-1.058l1.058-2.469
		l5.292-5.292l1.764-0.706l1.058-2.469l1.764-0.353l1.411,1.058h1.764l1.058-3.881l2.469,1.058l0.353-1.764l-1.058-3.175
		l2.822,0.706v-1.058l-0.163,0.081l-0.19-1.14l1.764,1.058l1.411,0.706l-0.353-4.939l-1.411-3.175l-0.706-3.175l1.058,0.353v-1.764
		l-0.706-3.528l1.764,0.706l0.706-0.706l0.353-4.939l1.411-0.706l-0.088-0.088l0.441-0.265v-3.528l0.706-1.764v-6.35v-1.764
		l-1.411-3.881v-2.469v-1.764l-1.058-3.175l-1.411-6.35l2.469,1.764l1.411,0.353v-1.764l0.302-1.512l0.403-0.605l-0.118-0.823
		l0.118-0.588L717.116,451.727z M203.085,105.105l-0.353-1.058l0.706-0.353l0.353,1.411H203.085z M200.968,120.627h-0.706v-0.706
		h0.706V120.627z M202.379,114.983l-1.058-0.353l-0.353-1.764h1.058l0.706,1.411L202.379,114.983z M596.915,694.895l0.353,1.058
		l-0.706,0.353l-0.353-1.411H596.915z M599.032,679.373h0.706v0.706h-0.706V679.373z M597.621,685.017l1.058,0.353l0.353,1.764
		h-1.058l-0.706-1.411L597.621,685.017z M444.741,186.598l1.764-0.353l0.706,1.058l-0.353,1.058h-1.764l-0.353-0.353V186.598z
		 M411.579,175.309l-0.353,1.058l-1.058-0.353L411.579,175.309z M198.499,137.561v-1.411l-1.058-2.117h1.411l0.706,2.469
		l1.411,0.706l0.22,0.882l-0.359,1.435l-0.795,0.795v0.062h-0.477v-2.469L198.499,137.561z M196.029,162.256l0.353,1.411h-0.706
		l-1.058-1.764L196.029,162.256z M355.259,613.402l-1.764,0.353l-0.706-1.058l0.353-1.058h1.764l0.353,0.353V613.402z
		 M388.421,624.691l0.353-1.058l1.058,0.353L388.421,624.691z M601.501,662.439v1.411l1.058,2.117h-1.411l-0.706-2.469l-1.411-0.706
		l-0.22-0.882l0.359-1.435l0.795-0.795v-0.062h0.477v2.469L601.501,662.439z M603.971,637.744l-0.353-1.411h0.706l1.058,1.764
		L603.971,637.744z"/>
	<polygon points="184.388,102.636 186.504,105.458 187.21,108.986 188.974,109.338 190.385,108.28 190.385,108.986 191.796,109.691 
		192.149,109.338 192.149,106.869 192.149,105.811 190.738,102.636 188.974,99.108 187.563,98.755 187.563,101.577 186.504,101.224 
		185.799,100.166 183.329,93.816 181.918,93.11 182.271,95.58 	"/>
	<polygon points="694.511,406.029 700.156,408.145 701.919,408.498 704.036,405.676 707.211,406.029 710.739,408.145 
		712.15,408.498 711.445,407.087 706.858,404.617 706.858,402.853 707.564,401.442 707.564,398.973 707.917,396.856 708.27,395.445 
		705.447,394.387 701.919,391.917 700.156,392.27 697.333,393.328 695.569,394.387 693.805,396.151 693.453,402.501 
		693.805,403.912 	"/>
	<polygon points="542.109,250.099 539.287,252.215 537.876,252.921 536.464,251.51 533.642,253.979 533.289,255.743 
		533.995,256.096 536.112,256.096 536.817,255.39 538.228,255.038 538.934,256.449 540.698,258.213 542.815,259.271 
		545.637,259.271 546.695,258.918 547.401,258.213 547.754,258.213 548.459,257.154 549.517,253.979 551.281,253.626 
		551.634,253.45 552.34,253.274 552.692,252.921 553.398,252.568 554.456,250.451 554.368,250.01 554.456,249.746 554.245,249.393 
		554.104,248.688 553.561,248.253 553.398,247.982 553.018,247.819 552.34,247.276 551.968,247.369 550.929,246.924 
		548.459,245.865 546.695,246.218 546.342,248.335 	"/>
	<polygon points="158.987,148.145 161.104,153.083 163.573,154.142 164.632,155.906 166.043,156.611 166.396,156.259 
		166.396,154.495 165.337,151.32 164.279,148.85 161.457,147.792 160.046,141.442 160.046,138.972 160.398,137.561 158.634,137.208 
		157.929,137.914 157.929,139.678 159.34,144.969 	"/>
	<polygon points="501.539,186.245 494.836,190.126 488.133,192.948 487.377,193.401 487.075,193.301 486.369,194.006 
		486.369,199.298 487.78,200.709 490.25,200.709 491.308,200.709 494.836,199.298 500.481,196.476 501.892,194.359 503.656,193.653 
		503.703,193.583 504.361,193.301 506.478,191.537 506.831,188.362 506.478,187.656 504.714,186.245 	"/>
	<polygon points="308.214,106.516 306.803,106.516 306.803,109.691 305.392,110.397 305.392,112.513 305.745,112.866 
		308.214,112.866 309.978,116.041 311.389,116.394 311.742,116.041 311.389,112.161 309.978,109.338 	"/>
	<polygon points="482.489,206.706 480.372,208.118 480.372,209.881 481.078,210.587 483.194,211.293 484.605,210.94 
		485.664,209.529 485.311,206.354 486.487,205.962 486.722,206.001 487.428,205.648 488.133,203.884 486.017,203.884 
		482.489,204.59 482.489,203.884 481.078,203.884 480.725,204.943 483.194,205.648 483.194,206.706 	"/>
	<polygon points="351.254,104.047 354.429,104.047 355.84,103.341 355.921,103.151 356.193,102.988 357.251,99.813 357.1,99.864 
		357.251,99.108 356.545,96.638 359.015,96.991 358.662,95.58 356.898,94.169 354.781,93.463 353.018,94.169 353.37,95.227 
		349.49,95.58 348.431,96.285 347.02,98.755 346.668,100.872 348.431,102.988 	"/>
	<polygon points="299.395,106.869 302.217,108.633 303.628,108.986 303.981,108.633 305.392,105.105 307.509,105.105 
		307.861,104.399 309.625,104.399 311.036,105.458 311.272,105.497 311.742,105.811 312.306,105.669 313.153,105.811 
		312.996,105.497 313.153,105.458 312.712,104.929 312.448,104.399 311.83,103.87 311.389,103.341 310.86,103.039 309.978,102.283 
		309.431,102.222 308.92,101.93 306.51,101.758 306.45,101.577 303.981,101.577 302.922,102.988 301.159,103.341 299.042,101.577 
		298.689,97.344 297.984,96.285 296.22,96.638 296.22,99.461 296.22,104.399 297.984,105.105 	"/>
	<polygon points="555.867,263.152 557.279,263.504 559.748,262.093 559.748,261.388 558.337,260.682 556.573,260.329 
		554.104,261.388 543.873,263.504 544.226,264.916 546.342,264.916 553.398,263.152 	"/>
	<polygon points="603.846,330.886 605.257,328.769 605.257,328.064 605.257,325.594 604.552,324.536 602.082,323.125 
		598.907,323.125 598.201,323.477 597.496,324.065 596.79,324.536 596.614,324.8 596.085,325.241 595.984,325.745 595.379,326.652 
		595.379,328.769 596.79,330.533 599.613,331.944 602.082,331.944 	"/>
	<polygon points="666.994,401.09 668.758,402.501 670.522,402.501 671.227,402.148 672.991,400.737 672.991,398.62 671.227,396.503 
		669.111,395.092 664.172,394.034 663.113,393.328 661.349,392.976 661.349,394.034 663.113,395.798 	"/>
	<polygon points="401.349,150.261 399.232,150.261 398.527,150.967 398.174,152.731 399.585,153.789 403.113,153.789 404.877,155.2 
		405.582,154.847 405.935,153.083 404.877,152.025 402.76,151.672 	"/>
	<polygon points="593.615,234.576 596.085,233.871 601.729,232.107 603.493,230.696 603.846,228.226 602.435,226.815 
		599.613,226.815 597.143,227.873 593.615,229.637 590.793,231.754 590.793,233.518 591.851,234.576 	"/>
	<polygon points="511.064,175.309 512.475,174.25 512.475,173.545 512.475,171.781 511.77,171.075 511.479,171.034 511.064,170.723 
		508.947,170.723 507.889,171.428 507.889,173.545 508.947,174.956 	"/>
	<polygon points="603.14,341.117 602.082,342.88 602.082,344.997 602.788,346.408 604.552,347.819 607.374,347.819 608.785,346.761 
		610.196,344.644 609.843,342.175 608.079,340.058 605.257,340.058 	"/>
	<polygon points="558.69,196.476 560.101,195.77 561.865,194.359 561.865,192.595 559.395,192.595 556.22,194.006 555.867,195.77 
		556.573,196.476 	"/>
	<polygon points="398.174,120.627 399.232,121.333 399.585,121.686 399.837,121.736 400.29,122.039 404.171,122.039 
		406.641,119.922 406.993,117.452 406.288,116.041 404.171,114.63 400.29,114.63 398.174,116.394 398.158,116.458 397.821,116.747 
		397.703,117.57 397.468,117.452 397.594,118.334 397.468,119.216 	"/>
	<polygon points="523.764,230.343 528.703,227.873 529.056,226.462 527.998,226.462 521.648,229.284 518.12,231.401 518.12,232.107 
		519.178,232.107 	"/>
	<polygon points="511.417,182.364 510.711,184.128 511.77,185.539 514.239,185.539 515.65,184.834 516.003,182.717 515.298,182.012 
		511.77,182.012 	"/>
	<polygon points="593.262,337.236 594.321,336.178 594.674,334.414 593.968,333.355 592.204,332.65 590.087,334.414 
		590.087,336.178 590.793,336.883 	"/>
	<polygon points="500.128,233.871 499.775,235.635 500.833,236.34 504.008,236.34 507.536,235.635 507.889,234.576 506.831,234.223 
		504.008,234.223 503.303,233.871 500.481,233.518 	"/>
	<polygon points="383.004,134.033 383.357,133.68 383.71,131.917 382.651,130.505 380.182,130.153 379.123,130.858 378.771,132.269 
		380.535,134.033 	"/>
	<polygon points="500.481,171.781 506.125,170.017 506.125,169.311 504.008,169.664 500.833,170.37 499.07,169.664 497.306,169.664 
		495.894,172.839 498.717,173.192 	"/>
	<polygon points="179.096,138.619 182.624,143.558 184.035,144.264 183.682,142.5 181.565,139.678 177.685,134.033 176.274,133.328 
		176.626,135.092 	"/>
	<polygon points="519.884,242.69 521.295,241.279 521.295,239.515 520.236,238.457 518.12,238.457 517.061,239.162 517.061,241.279 
		517.767,242.337 	"/>
	<polygon points="580.562,323.125 581.621,321.008 581.268,318.891 579.504,317.48 577.387,317.127 575.976,317.833 
		574.212,319.597 574.212,321.714 574.212,322.066 575.623,323.83 578.093,324.183 	"/>
	<polygon points="597.496,335.825 596.438,336.883 596.438,339.353 596.79,339.705 598.907,340.058 600.318,339 600.318,337.236 
		599.613,336.178 	"/>
	<polygon points="488.839,216.937 489.897,215.879 489.897,213.762 489.192,213.057 486.722,213.057 486.017,213.762 
		485.664,215.526 486.722,216.584 	"/>
	<polygon points="510.006,204.943 509.3,203.884 506.831,203.179 504.361,202.826 502.245,205.295 501.996,205.565 501.892,205.648 
		500.833,206.824 498.011,209.881 496.247,213.409 496.6,214.82 498.011,215.173 501.892,213.409 507.536,209.881 510.006,207.059 	
		"/>
	<polygon points="553.045,268.091 547.048,267.385 545.284,268.443 546.342,269.502 552.692,269.502 	"/>
	<polygon points="265.528,114.63 267.291,115.689 267.644,113.219 266.939,112.866 265.528,110.75 264.822,110.397 264.352,110.514 
		263.764,110.397 263.708,110.675 263.411,110.75 263.552,111.455 263.411,112.161 	"/>
	<polygon points="440.508,147.439 446.152,144.617 446.107,144.527 449.327,142.853 452.149,140.736 453.208,138.972 
		452.855,136.855 451.091,135.797 450.738,135.797 448.974,135.797 446.858,136.855 446.347,137.257 445.799,137.561 
		444.388,138.796 441.919,140.736 438.038,143.911 436.627,146.028 437.685,147.439 	"/>
	<polygon points="437.333,155.2 439.449,155.553 440.86,154.142 440.86,151.672 438.744,149.908 436.627,150.614 435.569,152.378 
		435.921,153.789 	"/>
	<polygon points="572.448,274.793 571.037,276.557 567.862,277.616 565.745,279.027 565.667,279.184 565.393,279.38 
		560.806,281.144 559.043,287.494 560.454,288.199 560.454,290.669 559.395,292.433 559.043,294.196 561.865,297.019 
		562.57,299.841 563.276,300.899 570.332,301.958 571.39,302.663 572.801,302.31 576.329,303.016 577.74,301.252 580.168,300.173 
		580.209,300.194 580.461,300.043 580.915,299.841 581.159,299.624 581.973,299.135 584.443,296.666 584.443,296.431 
		585.148,295.255 584.443,293.138 584.443,290.316 585.854,289.61 590.793,288.905 593.262,288.199 593.262,287.141 590.44,287.141 
		586.912,287.846 585.854,287.494 584.443,285.024 582.679,281.849 582.679,279.027 581.268,277.616 579.151,278.321 
		573.507,276.91 	"/>
	<polygon points="198.852,71.238 200.616,73.002 200.968,72.649 198.852,68.416 196.382,64.888 195.324,64.888 196.029,66.652 	"/>
	<polygon points="233.072,93.463 233.424,92.405 232.013,89.583 231.308,88.407 231.308,88.171 230.955,87.819 229.191,87.113 
		229.191,88.171 231.308,92.405 	"/>
	<path d="M580.562,336.178l0.706,1.764l0.088,0.088l0.265,0.617l1.764,1.411h2.117L586.56,339l0.353-2.469l-1.764-2.117
		l-3.175-1.058l-0.706-0.706l-0.738-0.123l0.033-0.23h-1.411l-0.706,1.058l0.353,1.764L580.562,336.178z M582.326,335.825
		l1.764-0.353l1.058,1.058l-0.353,2.117h-1.411l-0.941-0.706h0.235l-0.706-0.353L582.326,335.825z"/>
	<polygon points="657.822,391.564 657.469,389.801 655.352,388.389 651.824,388.037 651.824,388.742 656.058,391.212 	"/>
	<polygon points="591.499,270.207 592.91,267.385 592.557,265.621 591.499,265.974 589.382,268.796 589.735,270.207 	"/>
	<polygon points="590.44,348.525 591.851,349.936 593.968,349.936 594.674,349.231 595.379,348.525 595.379,346.408 
		593.968,344.644 592.204,344.644 591.499,344.644 590.793,344.997 590.087,346.408 	"/>
	<polygon points="217.549,73.002 218.96,73.355 219.666,72.296 219.313,70.885 217.549,69.121 215.785,68.768 216.138,70.18 	"/>
	<polygon points="524.47,280.791 528.703,282.555 532.231,283.613 531.878,282.907 526.939,280.085 524.47,279.732 	"/>
	<polygon points="688.867,402.148 690.63,402.501 689.572,401.09 685.691,397.915 683.575,397.209 684.28,398.62 	"/>
	<polygon points="646.885,389.801 648.649,390.506 648.649,389.801 645.121,385.567 643.358,385.214 643.71,386.625 	"/>
	<polygon points="354.076,111.455 352.665,112.161 352.606,112.337 352.312,112.513 351.959,114.63 352.665,117.805 
		354.076,119.569 357.957,120.98 359.368,121.137 359.368,121.333 361.132,121.333 362.896,119.569 363.248,117.805 
		362.896,116.629 362.896,116.394 362.19,114.277 360.779,112.513 358.662,111.455 	"/>
	<polygon points="524.931,202.636 524.823,203.179 525.175,204.59 525.528,206.001 526.939,208.118 528.703,209.176 
		531.173,209.176 532.231,208.823 533.995,207.412 534.083,207.28 534.348,207.059 534.524,206.618 535.406,205.295 
		536.817,203.531 541.756,200.356 542.462,198.945 541.403,198.945 536.112,202.473 535.053,202.12 535.053,201.062 538.228,198.24 
		538.581,196.123 537.523,195.065 535.406,195.417 533.289,197.181 533.211,197.338 532.584,197.887 528.35,198.945 
		525.175,201.415 525.159,201.499 524.823,201.767 	"/>
	<polygon points="250.358,113.925 250.358,111.808 248.947,110.397 247.536,110.75 247.183,112.161 248.594,113.572 	"/>
	<polygon points="481.078,126.978 481.43,126.625 481.783,124.861 481.078,124.155 478.961,124.155 478.255,125.214 
		478.961,126.625 	"/>
	<polygon points="553.045,212.351 558.69,209.529 565.393,206.001 571.037,203.179 575.623,200.356 576.329,198.945 
		575.271,198.945 572.096,200.356 567.157,203.179 563.276,205.295 557.984,208.47 550.223,212.704 549.87,213.762 550.576,213.762 
			"/>
	<polygon points="696.275,535.5 695.569,536.911 695.922,539.028 697.333,539.028 698.039,538.322 698.392,536.558 697.686,535.5 	
		"/>
	<polygon points="561.865,261.388 563.629,261.388 569.273,259.624 569.273,258.918 568.215,258.918 562.57,260.329 	"/>
	<polygon points="608.432,358.756 608.079,359.814 609.49,361.931 610.902,362.284 611.254,361.225 610.196,359.108 	"/>
	<polygon points="448.974,147.439 450.738,147.792 452.502,147.086 453.561,147.086 455.324,147.086 456.736,146.028 
		457.441,142.853 459.205,141.794 459.205,141.089 457.794,141.089 453.561,142.853 449.327,146.028 	"/>
	<polygon points="563.276,253.626 562.923,253.979 563.629,255.743 565.745,256.096 566.451,254.685 565.393,253.626 	"/>
	<path d="M460.616,175.662l-1.764,2.117l-0.353,1.411l0.706,0.353l3.528,0.706l0.706,3.175l-2.469-0.353l-1.764,1.411v1.764
		l1.764,1.058l2.822,0.353l0.706-2.117l0.706-0.353v3.175l0.353,0.706l0.706,2.117h-0.706l-1.058,1.411v2.117l1.411,2.117h2.117
		l0.47-0.353h0.235l0.706-0.706l2.117,0.353h4.233h0.706l0.706-0.706l1.764-3.881l0.353-1.764l-1.058-3.881l-1.764-2.822
		l-2.117-1.058l-0.448-0.081l-0.611-0.271l-0.371,0.093l-2.451-0.446l-0.353-1.058l2.469,0.353l1.411-0.353h3.528l1.764,0.353
		l1.764-1.411l3.175-0.706l1.852-1.058h0.265l0.353-0.353l8.467-3.528l0.353-1.058l-3.175,0.353l-3.528,1.411l-2.198,0.488
		l-2.388,0.217l-5.997,0.706l-1.764-1.058l-6.35-0.353l-3.528-1.058l-2.058-0.206l0.294-0.147h-1.764l-1.411,1.058L460.616,175.662z
		 M464.497,180.248h4.233v0.353h0.706l-0.353,0.706v0.289l-0.584,0.478l-0.122-0.061l-2.822,2.117v0.353h-0.706l-0.706-3.175
		L464.497,180.248z"/>
	<polygon points="554.809,256.096 555.867,256.096 559.043,254.685 559.395,253.274 558.337,253.274 555.515,254.685 	"/>
	<polygon points="183.682,108.986 184.74,110.397 186.151,110.75 186.151,109.338 184.74,107.222 183.682,106.869 	"/>
	<polygon points="487.78,169.664 488.133,169.311 488.133,167.548 487.78,167.195 486.017,167.195 485.311,168.253 486.017,169.311 
			"/>
	<polygon points="297.278,113.572 297.984,114.983 299.042,114.983 299.395,114.63 299.042,112.161 297.631,111.455 	"/>
	<polygon points="432.394,137.914 433.099,137.561 433.099,135.797 432.041,135.092 430.63,135.797 430.983,137.561 	"/>
	<polygon points="569.626,221.17 569.979,220.112 568.215,219.054 566.098,218.701 566.098,219.759 567.862,220.818 	"/>
	<polygon points="718.147,436.721 718.147,437.426 719.911,439.543 721.323,439.896 721.323,438.485 719.911,437.073 	"/>
	<polygon points="603.205,264.98 602.435,265.621 602.502,265.823 602.082,266.327 599.965,268.796 599.613,270.56 601.024,270.56 
		602.082,269.854 605.61,268.443 607.374,267.032 607.648,265.66 607.727,265.621 607.676,265.52 607.727,265.268 607.374,264.916 
		607.021,264.21 606.609,264.151 606.315,263.857 605.433,263.983 604.552,263.857 604.187,264.161 603.846,264.21 	"/>
	<polygon points="585.148,314.658 585.148,313.952 582.326,311.836 580.209,311.13 580.209,311.836 582.326,313.247 	"/>
	<polygon points="187.563,132.269 186.151,131.917 185.093,133.68 185.446,135.092 186.151,135.444 186.857,133.68 	"/>
	<polygon points="193.56,83.938 194.265,83.938 194.618,83.585 194.971,81.821 192.854,81.116 192.854,82.527 	"/>
	<polygon points="262,111.102 262.352,110.75 261.647,108.986 259.883,108.633 260.236,110.397 	"/>
	<polygon points="560.454,241.985 560.63,241.455 561.159,240.926 561.159,238.81 560.101,237.751 557.631,237.398 556.22,238.81 
		556.22,240.926 557.631,242.337 559.748,242.337 	"/>
	<polygon points="213.316,65.946 213.669,64.535 212.257,62.771 211.199,62.771 211.552,64.535 	"/>
	<polygon points="482.136,185.892 481.078,186.245 481.078,188.009 482.489,188.362 483.194,186.951 	"/>
	<polygon points="690.63,538.322 690.983,539.733 692.394,540.086 692.747,538.322 692.042,537.969 	"/>
	<polygon points="192.854,81.116 192.854,78.646 192.502,77.941 191.09,77.941 191.796,80.057 	"/>
	<polygon points="163.221,160.139 163.221,162.256 163.573,162.961 164.632,162.961 164.985,162.609 164.279,160.492 	"/>
	<polygon points="723.086,464.943 723.439,467.06 724.85,467.413 724.498,465.296 	"/>
	<polygon points="313.153,122.744 314.212,123.097 314.564,122.744 313.859,120.627 312.8,120.275 	"/>
	<polygon points="188.621,157.317 187.563,156.259 186.504,156.611 186.857,158.022 188.621,158.375 	"/>
	<polygon points="713.561,503.044 714.62,504.808 715.678,505.16 715.678,503.749 713.914,501.985 	"/>
	<polygon points="227.074,83.585 225.663,83.233 225.663,84.644 227.074,84.996 	"/>
	<polygon points="206.966,108.986 206.966,110.044 208.024,111.102 208.377,109.338 	"/>
	<polygon points="270.114,116.394 268.35,116.041 267.997,117.452 268.703,117.805 	"/>
	<polygon points="573.859,240.926 572.801,240.574 572.096,241.985 573.154,242.337 	"/>
	<polygon points="535.759,285.377 537.17,286.788 538.934,287.141 538.228,286.082 	"/>
	<polygon points="445.094,150.967 445.447,150.614 445.799,149.203 444.741,149.203 444.388,150.967 	"/>
	<polygon points="710.739,566.897 711.445,566.897 712.503,565.839 712.503,564.781 711.445,565.486 	"/>
	<polygon points="630.305,320.302 629.599,319.244 628.188,318.891 628.541,319.95 	"/>
	<polygon points="241.186,102.988 240.833,101.93 239.422,101.93 239.422,102.636 240.833,103.341 	"/>
	<polygon points="312.8,135.797 312.8,134.739 311.389,134.739 311.742,135.797 	"/>
	<polygon points="498.364,154.847 497.306,155.2 497.306,155.906 498.717,156.259 	"/>
	<polygon points="172.746,166.136 171.687,166.136 172.04,167.548 172.746,167.548 	"/>
	<polygon points="501.539,227.168 501.539,228.579 502.245,228.579 502.597,227.168 	"/>
	<polygon points="207.671,47.601 206.613,46.543 206.26,47.601 207.318,47.954 	"/>
	<polygon points="196.029,104.399 194.971,104.399 196.382,105.811 	"/>
	<polygon points="347.726,108.633 346.668,108.28 346.668,109.338 347.726,109.691 	"/>
	<polygon points="314.212,125.214 315.27,125.566 315.27,124.508 314.212,124.155 	"/>
	<polygon points="425.338,134.739 423.927,134.386 423.927,135.444 424.985,135.444 	"/>
	<polygon points="545.99,215.879 546.342,214.82 544.578,215.526 545.284,216.232 	"/>
	<polygon points="509.3,218.701 509.653,217.643 508.595,217.643 508.242,218.701 	"/>
	<polygon points="481.783,192.948 482.489,193.301 482.842,192.242 481.783,191.89 	"/>
	<rect x="513.534" y="238.81" width="1.058" height="1.058"/>
	<polygon points="184.74,166.136 185.799,166.136 185.799,165.431 184.74,165.078 	"/>
	<polygon points="607.021,362.989 607.021,362.284 605.963,361.931 605.963,362.989 	"/>
	<polygon points="321.267,145.675 321.62,144.617 320.562,144.617 320.562,145.322 	"/>
	<polygon points="524.823,172.134 524.117,171.781 523.764,172.839 524.823,172.839 	"/>
	<polygon points="480.372,198.24 481.078,198.24 481.43,197.534 480.372,197.181 	"/>
	<polygon points="556.926,259.624 557.279,258.565 556.22,258.565 556.22,259.271 	"/>
	<rect x="260.941" y="103.694" width="0.706" height="1.058"/>
	<rect x="512.475" y="256.802" width="1.058" height="0.706"/>
	<polygon points="540.345,264.21 540.698,263.504 539.64,263.152 539.64,263.857 	"/>
	<rect x="529.762" y="271.971" width="0.706" height="1.058"/>
	<rect x="576.329" y="329.122" width="0.706" height="1.058"/>
	<polygon points="718.5,475.527 719.206,475.527 719.206,474.821 718.147,474.468 	"/>
	<polygon points="237.305,96.638 236.952,97.697 237.658,97.697 	"/>
	<polygon points="391.824,150.614 390.765,150.967 391.824,151.32 	"/>
	<polygon points="169.218,160.139 169.218,160.845 169.923,161.197 169.923,160.139 	"/>
	<polygon points="175.568,172.839 176.274,172.839 175.921,171.781 	"/>
	<rect x="525.175" y="249.746" width="0.706" height="0.706"/>
	<rect x="533.995" y="263.857" width="0.706" height="0.706"/>
	<rect x="518.12" y="269.502" width="0.706" height="0.706"/>
	<rect x="613.018" y="288.552" width="0.706" height="0.706"/>
	<polygon points="545.99,290.669 547.048,290.669 546.342,289.963 	"/>
	<rect x="613.724" y="316.069" width="0.706" height="0.706"/>
	<polygon points="186.857,138.267 186.504,137.561 186.151,138.267 	"/>
	<polygon points="728.025,489.285 728.731,489.638 728.731,488.932 	"/>
</g>
</svg>
