<?xml version="1.0" encoding="utf-8"?>
<!-- Generator: Adobe Illustrator 27.5.0, SVG Export Plug-In . SVG Version: 6.00 Build 0)  -->
<svg version="1.1" id="Layer_1" xmlns="http://www.w3.org/2000/svg" xmlns:xlink="http://www.w3.org/1999/xlink" x="0px" y="0px"
	 viewBox="0 0 800 800" style="enable-background:new 0 0 800 800;" xml:space="preserve">
<g>
	<path d="M694.974,472.959l-1.046-1.569v-4.184l0.523-1.569l1.046-4.707h-2.092l0.523-5.23l2.092-1.046l1.046-2.092l-0.523-2.615
		l-3.138-2.092l-1.046-4.707l1.046-7.322l2.092-2.092l0.127-0.285l0.396-0.238l0.523-1.831l1.046-2.353l1.046-8.368l2.615-1.046
		v-1.046l-2.615-1.046l0.523-3.138l-0.523-2.615l0.523-1.569l-0.174-0.872l0.174-1.22l-0.465-0.232l-0.058-0.291l-0.143,0.19
		l-0.38-0.19l-1.046,2.092l-1.569,6.276l-1.046,1.569l-0.885,3.098l-0.161-0.483v1.046h-1.046v-13.598l0.523-3.138l4.184-8.368
		v-6.276l1.569-9.414v-5.23l0.523-2.615l0.523-4.707h-1.569v-2.615l1.046-9.414l1.569-12.552l1.046-3.138v-4.184h-0.523
		l-0.523,0.523l-3.138,15.69l-0.523,4.184h-1.569v-4.184l-1.046-1.569l-0.432-2.592l0.955-1.592l0.523-3.661l-0.523-2.092
		l-0.523,0.523l-0.915,2.354l-0.654,1.307l-2.615,6.799l-2.092,4.707l-0.523-9.414h-1.569l-2.615,3.661l-2.092,4.184l-1.569,5.23
		l-1.046,0.523v-1.046l-2.092-0.523v3.138l-1.046,3.138l-1.569,4.184l-1.046,8.891l-2.092,8.891l-2.615,15.167l-1.569,11.506
		l-1.046,2.092l-0.523,8.368l-0.523,1.046l-1.569-3.661l-0.523-3.138l1.569-1.046l0.523-1.569l-2.092-1.569l-1.046-10.46
		l-2.092-4.707l-0.523-4.707l0.837-4.184h0.209l0.523-3.661l1.046,2.615l0.028-0.11l0.495,1.156l3.661,3.661l2.092,1.046v-9.414
		l1.046-0.523v-1.569l-1.569-1.046v-7.322l0.523-4.707v-5.753l-0.523-0.523l0.523-2.092h4.707l3.138-0.523l-0.523-1.569
		l-6.973-0.436l-0.872-0.087l0.523-3.138l1.046-2.092l-2.615-1.569l-1.046-3.661l-2.092-2.092l-1.569-2.615l-0.523-2.615
		l1.569-0.523v-1.046l-3.138-2.615v-2.615l-2.615-2.615l0.523-3.138l1.046-8.891h1.046v12.029l1.046,2.615l2.092-1.046l-0.047,0.38
		l-0.476,1.189v2.615l2.615,0.523l3.661-1.569l1.569,0.523l2.092,0.523l0.523-2.615l-2.092-1.046l0.523-2.092l-0.523-2.092
		l-4.184,0.523l0.523-4.707l-2.092-1.569l0.523-7.845l-1.569-2.092h-3.138l-1.046,0.523l0.523-5.753l3.138,0.523v-2.615h-3.138
		l0.523-6.799l0.523-2.092l3.138-24.581l1.046-4.184l0.523-1.046v-1.308l0.523-2.353l2.615-4.184l1.046-3.138h1.046v-4.707
		l4.184-5.753l0.785-1.307l1.307-1.83l0.261-0.785l0.785-1.308l-0.209-0.418l0.209-0.628l-0.392,0.262l-0.131-0.262l-1.046,1.046
		l-2.092,3.661l-3.138,4.184l-2.092,1.046l-1.046-2.615l-2.092-0.523l-0.523-1.046l1.569-2.615l-0.523-1.046l-3.661,3.661
		l-2.615,1.046l0.523-1.569l2.092-2.615l1.046-2.615h-1.046l-1.569,2.092l-2.092,1.046l0.523-2.615l-2.092,2.092l-4.707,3.661
		l0.523-4.707h-1.046l-5.753,6.276l-2.615,0.523l2.092-3.661l6.276-9.937l1.831-3.661h0.261l2.092-4.707l2.484-4.14l0.131-0.044
		l3.661-6.276l0.523-2.615h-1.046l-4.707,7.845l-1.086,1.931l-2.575,4.345l-4.707,7.845l-6.193,9.497l-2.349,3.23l-1.395,1.395
		l2.092-5.23l3.661-6.276l8.891-16.736l4.707-10.46l3.138-5.23l3.661-7.322l0,0l3.138-6.276v0l0.523-1.046l4.707-7.845l1.046-2.615
		h-1.046l-2.092,2.615l-3.661,7.322l-3.138,5.23l-0.131,0.327l-1.307,2.223l-0.131,0.065l-0.523,1.046l0,0v0l-1.307,2.615h-0.784
		l1.046-2.615l2.69-6.276l2.192-3.835l3.487-5.579l0.523-2.092h-1.569l-1.046,1.046l-6.799,4.707l-5.23,1.569l-6.799,1.046
		l0.523-2.615l8.891-4.707l7.322-4.184l5.644-3.174l0.109,0.036l2.615-1.569l3.138,0.523l2.615-3.138l7.322-4.707l9.937-5.23
		l5.23-3.661l-1.569-0.523l-8.891,4.707l-6.276,3.138l-2.092,1.046l0.057,0.086l-0.711,0.437h-0.392l-1.569,1.046l-0.418,0.418
		l-0.556,0.342l-9.485,4.992l-9.937,4.707v-1.046l10.983-7.322l9.937-4.707l6.799-4.707l10.983-7.322l9.937-6.276l1.046-2.092
		h-2.092v-1.046l3.983-2.655l0.201,0.04l2.092-1.569v-1.046h1.046l-1.569-0.523l-2.929,1.098l-2.824,0.471l3.661-3.661l1.046-2.615
		h-1.569l-2.615,1.046l-2.092,1.046l-4.707,2.092l-7.322,4.184l-11.506,6.276l-9.937,4.707l-15.167,7.322l-4.707,1.569l1.569-1.046
		l12.552-6.276l21.443-10.983l5.753-3.661l-2.092-0.523l-7.322,3.138l-9.937,4.184l-4.707,3.138h-5.23l-1.569,1.046l-3.138,1.046
		l-3.566,1.585l-0.095-0.016l-1.046,0.523l-3.661,1.569l-8.891,3.661l-1.569,0.523l0,0l-3.362,1.121l-7.621,2.54l-1.36,0.628
		l-0.209-0.105l-5.23,2.615v1.046h-1.569l-2.092,1.569l-8.368,4.184l-5.23,2.092l0.523-1.046l6.276-2.615l7.845-3.661l-1.569-0.523
		l-8.368,3.138l-1.231,0.769l-3.999,1.846l-1.046,0.523l-0.262,0.523l-1.307,1.046l-2.092,1.046l-0.523-1.046l2.615-0.523
		l1.569-1.569l2.615-5.23l4.184-3.661l1.046-2.092l-2.092,0.523l-2.615,1.046l-0.523-1.569l-1.046-0.523h-1.569l-5.23,3.138
		l-4.184,3.661l-2.615,4.184l-5.23,4.707l-2.092,0.523l4.184-5.23l0.299-0.747l0.224-0.299v-0.261l0.523-1.307l-0.523,0.261v-0.261
		l-1.569,1.046l-5.23,4.184l-4.184,3.661l-3.138,2.092h0l7.322-7.322l1.046-2.092h1.046l3.138-4.184l4.707-5.23l2.615-2.615
		l4.061-3.723l0.123,0.062l2.092-2.092l1.046-2.615h-2.615l-1.189,0.475l-0.38,0.048l-0.32,0.232l-0.726,0.291l-2.615,2.14
		l-2.092,1.521l-7.322,6.276l-4.184,3.138l0.761-1.902l3.423-3.851l0,0l4.184-3.661l2.092-2.615l0.523-3.661h-1.046l-1.569,0.523
		l-4.559,3.192l-3.286,0.469v-3.138l2.615-3.661l-1.046-0.523l-1.569,1.046l-0.174,0.174l-3.487,2.441l-2.615,0.523v-1.046
		l3.138-4.707l9.414-9.414l-0.523-2.092h-2.615l-1.569,0.523l-5.31,3.862l-6.196,3.983l-0.784,0.697l-1.307,0.872l-2.615,2.615
		l-4.184,3.661l-6.799,5.753l-4.707,3.138l-2.615,3.661l-4.184,3.661l-5.753,5.753l-2.092,2.615l-2.092,2.615l-6.276,6.799
		l-1.046,2.092l-3.138,1.046l3.138-4.184l0.523-3.661l3.661-3.661l4.707-5.753l7.322-7.845l4.184-5.23l3.661-4.184l4.184-4.184
		l0.523-0.523l1.569-2.615l0,0l2.877-4.109l2.354-2.69l2.092-3.138l-2.092,0.523v-1.569h-1.046l-1.046,0.523l-3.138,2.615
		l-6.799,6.276l-3.138,2.092l1.22-2.441l1.073-1.341l0.66-0.587l0.185,0.185l4.184-3.661l0.523-1.046l1.046-1.046l-1.046-0.523
		l2.092-4.184l-3.661,1.046l0.523-1.046l4.707-4.707l4.184-3.661v-1.569l-0.448,0.224l-0.075-0.224l-0.523,0.523l-3.138,2.092
		l-7.322,7.322l-3.661,2.092l0.523-2.092l1.046-1.046l4.707-3.661l0.262-0.785l0.261-0.261l-0.149-0.075l0.149-0.448l-0.581,0.232
		l-0.465-0.232l-1.569,1.046l-3.138,1.046l-1.883,1.464l-5.039,3.489l-4.061,2.369l-1.958,1.602l-0.134-0.033l-3.661,3.138
		l-4.142,2.636l-0.042-0.021l-0.261,0.214l-1.308,0.832l-6.102,5.23l-2.397,1.962l-3.53,2.746l-4.184,3.661l0.523-1.569l6.799-6.799
		l1.046-2.092h1.046l3.138-3.138l5.753-3.661l7.322-5.753l5.753-3.661l2.615-2.615l-1.569-0.523l-2.615,1.569l-3.661,1.046
		l0.523-1.046l-1.046-1.046l-1.046,2.092l-4.707-1.569l-0.523-2.092h-4.184l-0.523,0.523l-2.092,0.523l-2.092-1.046l0.523-1.046
		l9.414-3.661l7.322-3.661l9.937-4.707l7.845-3.138l0,0l5.23-2.092l3.661-1.046l2.615-1.046l10.983-3.138l4.707-0.523l1.046-2.092
		l3.661-3.138l1.046-2.092l-1.569-2.615h1.046l1.77-0.805l0.845-0.241l4.184-1.046h1.046l-5.23,3.661v1.569l2.092-0.523l10.46-3.661
		l7.322-1.569l2.615-1.046l0.131-0.131L616,86.983l5.23-1.046l1.569-1.046l7.845-3.138l10.983-4.184l12.552-4.184l8.368-2.092
		l6.276,0.523v1.046h-2.092l-2.615,1.046l-6.276,2.615l-1.046,1.569l6.799,0.523l10.46-3.138l5.23-2.092l0.523-1.569l3.661-0.523
		l6.799-0.523v1.046l-4.707,0.523v1.046l4.707,2.092l6.276-0.523l0.523-1.046l6.799,0.523v-1.569l-1.569-1.046l-5.23-1.046h-4.184
		v-1.046l-0.418-0.209l-0.105-0.314l-2.615-2.615l4.707,1.569h2.615v-1.046l-5.23-2.615l-8.368-3.661l-7.845-2.615l1.569-0.523
		l5.753-0.523v-1.046h-1.569l-4.707-1.569h-1.046h-4.184l-8.891,1.046l-1.464,0.366l-1.151,0.157v0.131l-5.753,1.438l-10.46,2.092
		l-14.644,5.23l-7.322,1.569l-3.138-1.569h-3.661l-1.121,0.374l-0.448-0.897l3.661-0.523l9.414-3.138l5.23-1.046l2.615-1.569
		l6.276-1.046v-3.138l3.138,0.523l2.615-0.523l5.23,1.046l-0.523-3.138l-2.615-2.092h-7.845l-12.029,1.569l-8.891,2.615
		l-14.644,4.707l-5.492,1.831l-9.152,2.876l-8.891,2.615l-25.104,7.845v-1.046h-1.046l-12.552,5.23l-10.46,3.661l-4.035,1.569
		h-0.149l-5.23,2.092h-6.799l-1.569,1.046l-4.184,2.092l-4.184,0.523l-1.046-1.046l-3.661,0.523l-4.707-0.523h-5.23l-1.569-0.523
		h-4.707l-7.845,1.569l-1.121,0.299l-3.586,0.747l-2.312,0.826l-0.826,0.22l-4.755,1.426l-1.521-0.38h-6.276l-2.615,1.868
		l-0.453,0.259l-0.07-0.035l-0.174,0.174l-2.441,1.395l0,0l-1.046,0.523l-0.523,0.523h0l-1.046,1.046h0l0,0l-0.448,0.448l-2.69,2.69
		l-3.138,5.753l-7.322,4.707l-8.368,4.707l-12.029,6.799l-6.799,4.707l-8.368,4.707l-6.276,2.092l-6.276,1.046l-3.138,1.046
		l-8.368,2.092l-6.799,2.615l-7.845,4.707l-1.569-1.569h-1.046l-0.523,2.092l-3.138,1.046l-5.23,5.753l-2.615,2.615l-5.23,4.184
		l1.046-7.322h-0.523l-1.883,3.766l-0.078,0.026l0.915-2.746l3.661-13.075l1.046-1.569v-3.138l-2.092-2.092h-1.569l-5.753,7.322
		l-5.23,6.799l-4.707,6.276l-6.799,8.891l-6.276,6.276l-1.046,2.092h-1.046l-2.615,3.138l-6.276,5.753h-3.661l-3.661-2.615
		l-2.615-2.615l-7.322-2.092h-3.661l-0.523,1.046h-1.569l-1.569-1.046l-5.23-1.046h-3.138h-1.046l-1.046,1.046l1.046,1.046
		l1.046,1.255v0.314l1.569,1.569l0.095,0.024l0.428,0.499l5.753,1.569l2.092,0.523l2.092-1.569l2.615,1.569l0.523,4.184
		l-4.707,0.523l-2.092-2.092l-7.322,0.523l-2.615-0.475v-0.048l-3.138-0.523l-1.046-1.046l-4.707-0.523l-0.161,0.081l-0.885-0.081
		l-0.523,0.523v0.262l-0.523,0.262v3.138l5.23,3.138l5.23,0.523l2.092,3.138l1.085,0.326l-0.039,0.197l4.184,1.046l6.799,0.523
		l0.523,0.523l4.184,1.046l-1.046,2.092l-3.661,4.184l-5.753,4.707l-2.531,1.611l-0.084-0.042l-4.184,2.615l-2.092,2.092
		l-7.322,6.276l-4.184,2.092l-2.615-1.046l-3.661-0.523l-0.523,2.615l1.046,2.615l-1.569,1.046l-2.615,1.046v-1.569l1.046-2.092
		l-2.615-0.523v2.615l-5.753,1.569l-1.046,3.138l-2.615,0.523l-1.046,2.615l-1.569,2.615l-3.661,2.615v3.138l-2.092,2.092
		l-5.23,4.184l-7.275,5.254l-0.048-0.024l-2.092,1.569l-4.707,3.661l-7.845,5.753l-0.431,0.369l-1.661,1.2l-3.138,2.746
		l-2.615,1.961l0.185,0.061l-0.517,0.414l-0.19,0.048l-5.753,4.707l-4.707,2.615l-5.753,4.184l-4.707,3.661l-5.23,3.922
		l-4.065,2.936l-0.119-0.059l-4.184,3.138l-0.105,0.105l-5.648,4.079l-1.046,2.092h3.138l4.707-2.092l-0.428,1.284l-4.279,3.423
		l-3.661,2.092l-2.615,0.523l-1.046-1.046l-0.628,0.209l-0.418-0.209l-2.092,1.046l-1.569,0.523l-1.308,0.915l-0.261,0.131
		l0.044,0.022l-3.705,2.593l-5.23,4.707l-8.368,5.753l-2.615-1.046h-3.661l-1.569,1.569l-2.615,6.276l-3.138,4.184l-4.707,5.753
		l-5.753,4.707l-6.276,6.276v2.615l1.046,1.569l3.138,2.092l7.845,1.046l12.552,2.615l4.184,2.092l2.092-0.523l6.276-0.523h6.276
		l4.184,1.046l17.782,3.661v1.569l-1.569,2.615l-0.523,3.138l2.615,4.184h2.092l1.046,2.615l2.092,1.046l2.092-1.569l2.615-2.615
		l0.161-0.201l3.442-2.704l0.581-0.232l1.046-1.046l5.23-4.707l6.799-4.707l7.322-5.753l-1.046,1.569l-1.046,2.092h1.569l5.23-3.661
		l8.368-4.707v3.138l3.661-2.092l1.046,0.523v3.138l-0.523,0.523l-1.046,2.092h-1.046l-3.138,3.661l-3.661,5.23l-4.184,5.753
		l-3.661,5.23l-3.138,5.753l-1.569,2.615l-2.615,2.615l-9.414,2.615l-8.368-0.523l-3.138-1.046v-1.046l-2.615-3.138l-3.661-1.046
		h-9.414l-1.046-0.523h-3.138l-1.569-0.523l-1.569-3.661l-4.184-3.661h-3.661l-2.092,0.523l-4.184,2.615l-5.23,5.753l-0.157,0.314
		l-4.027,4.393l0,0l-4.707,3.661l-2.51,1.674l-1.395,0.349l-4.986-0.453l-3.138-1.569v-3.661l3.661-3.661l0.523-4.707l-0.523-1.046
		l-3.661-4.184l-3.138-2.092l-3.661-0.523l-1.046,2.092l-2.615-1.569l-0.732-0.105l-0.837-0.418l-1.116,0.139l-0.976-0.139
		l-2.092,0.523l-1.046,1.046v3.661l0.523,0.523l4.707,1.569v3.661l-0.523,1.569l-6.799,1.569l-2.615,2.615l0.523,5.23l1.569,2.615
		l4.184,2.092l5.23,1.046l1.046,4.707l2.615,1.569l5.23,0.523l0.523,0.523l2.092,6.276l3.661,4.707l1.046,2.615l-1.569,1.569
		l-5.23,2.615l-4.184,0.523l-2.615-1.046h-3.138l-2.615,2.615l-6.799,2.615l-2.615-1.046h-5.23l-1.046,0.523l-2.092,2.615v3.138
		l1.569,1.569l3.138,1.046l4.707-2.092l4.184-0.523l2.092,1.046l5.23,1.569l1.046,1.569l3.138,1.569l13.598,4.707l5.23,4.184h7.322
		l3.138,0.523l4.184-0.523l-1.046,2.615l0.523,2.092l-0.523,4.707l2.615,1.569l1.046,1.569v3.138l-2.092,3.138l-2.615,2.092
		l-0.084,0.157l-0.439,0.366l-1.938,4.092l-1.723,3.23l-0.458,1.373l-0.588,1.242l-0.523,2.092l0,0l0,0l-1.046,3.138l-3.138,7.322
		l-3.661,3.138l-19.874,19.874l-0.523,3.661l0.523,0.523l0.523,2.615l-3.138,5.753l-3.661,4.184l-1.569,4.707l3.661,1.569
		l0.897,0.149l0.149,0.374h2.092l1.569-1.046l0.029-0.073l3.632-2.542l5.23-1.046l0.523,2.615l4.707,1.046l8.368,3.138l3.138-0.523
		l4.707,0.523v1.569l1.569-1.046l4.184-0.523l1.569-1.046h4.184h0.523l-0.523,1.046l-3.282,2.813l0.144-0.721l-1.046-0.523
		l-2.092,2.092l-9.937,9.937l-4.707,5.753l-6.276,6.276l-4.184,3.661l1.569-3.138l7.845-7.845l3.661-4.707l4.184-5.23v-0.523
		l0.523-1.046l-0.523,0.349v-0.349l-1.046,1.046l-3.138,2.092l-1.569,2.615h-2.615l-1.046,2.615l-1.046,0.523l-5.753,7.322
		l-1.046,3.138l-4.707-1.569H93.52l-1.569-0.628l-1.569-0.941h-0.465l-7.903-4.184h-3.138l-3.138,2.092l-2.092,3.138v6.276
		l1.046,1.569L76,577.69l0.262,0.392l1.046,0.448v0.075l2.615,1.046l1.569,4.184l-0.523,6.799l0.523,1.046l1.664,2.14l0.428,0.998
		l1.569,1.569l2.615,8.891l0.761,1.331l0.285,0.761l0.194,0.077l0.454,0.794l0.224,1.569l-0.349,1.743l-3.138,2.092l-0.837,0.628
		l-2.301,1.464l-0.209,0.418l-0.837,0.628l-1.046,5.23v4.184l0.523,1.046l0.392,0.392l2.746,4.315v4.184l-0.523,3.661l1.046,1.569
		l2.092,0.523l1.569-1.046l3.661-6.799l3.138-2.615l1.569-3.661V619.4l-0.523-4.184l2.092-6.799l8.891-4.184l3.068-0.384l1.22,0.174
		l0.418,1.255l0.523,10.983l0.523,1.046l1.569,0.523l0.523-2.092l-1.046-2.615v-9.937h1.569l-0.523,1.046v6.276l2.092,7.322
		l4.707,5.23l2.092,0.523v-2.615l-1.046-1.569l-0.523-2.615l1.046-3.138l3.661-7.845l4.184-5.753l5.23-4.184l2.615-2.615
		l2.615-1.046l3.661-3.661l4.184-3.138l1.569-2.615l7.322-5.23l5.23-3.661l3.138-1.569l-1.569,2.615l1.046,3.138l-2.615,4.707
		l1.046,0.523l1.569-1.569l3.138-0.523l5.23-4.184l3.138-3.661l2.615-1.569l4.184,0.523l1.569-1.046l3.661-4.184l7.845-5.23
		l2.615-1.046l0.523,1.046h1.569l1.046-1.046l5.579-2.789l1.743-0.349h2.615l0.523,2.092l-4.707,5.753l-4.184,2.092l-0.161,0.322
		l-0.362,0.201l-0.872,2.266l-0.174,0.349l-1.778,4.445l-2.667,3.334l-3.922,4.249l-2.579,2.11l-0.036-0.018l-3.138,2.615
		l-2.615,2.615L184,592.727l-1.046,2.092h-1.046l-1.569,1.569l-5.23,4.184l-0.322,0.402l-2.816,2.213l-3.138,3.138l-2.615,2.092
		l-3.661,2.615l-0.269,0.448l-0.777,0.598l-4.184,1.569l0.523-1.046l5.23-6.799l5.23-5.753l3.661-5.23l4.184-4.707l1.046-3.138
		l2.615-1.569l3.138-2.092l1.046-3.138l7.845-5.753l4.707-4.707l3.138-4.184l-0.523-1.569l-4.707,3.661l-7.322,6.276l-4.184,3.661
		l-3.661,3.661l-5.23,4.707l-4.184,3.661l-9.937,9.937l0,0l-1.046,1.046l-7.845,7.322l-0.523,2.615l1.569-0.523v-1.046l2.615-1.046
		l-0.845,1.408l-3.862,4.345l0,0l-1.046,1.046l0,0l-4.184,4.184l-2.353,2.614l-2.877,3.139v0.523l-0.523,1.046l0.523-0.261v0.261
		l1.674-1.464l3.452-2.824l2.197-1.464l-1.569,2.092l-0.523,2.092l2.615,1.569l2.615,2.092l2.092,0.523l1.569-1.569l3.661-4.184
		l4.707-5.23l3.661-4.184l0,0l3.661-2.615l-1.046,2.615h1.046l2.092-1.569l5.753-4.707l-1.046,1.569v0.523l-0.523,1.046l0.523-0.349
		v0.349l3.138-2.441l1.046-0.697l1.83-1.569l3.923-3.138l0.785-0.897l0.785-0.672l1.177-1.569l0.915-1.046l0.149-0.374l0.897-1.195
		l-0.19-0.571l0.19-0.475l-0.418-0.209l-0.105-0.314l-0.209,0.157l-0.314-0.157l-3.661,3.138l-0.349,0.872l-0.174,0.174
		l-2.092,1.046l0.523-1.046l8.891-8.891l3.661-4.184l2.615-1.046l-1.569,3.138l-1.046,2.615l4.184-2.615l7.322-5.23l4.184-3.661
		l5.753-4.707l2.615-3.138l4.184-3.661l1.569-1.569l2.092-1.046l1.569-1.569l3.138-2.615l0.654-0.49l1.961,0.49l1.569-1.569h3.661
		l1.046-1.046l2.092-0.523l1.569,2.092l3.661-0.523v2.615l1.046,2.092l1.464,2.092l0.628,1.046l0.349,0.349l1.22,1.743l0.61,0.087
		l0.436,0.436h2.615l5.23,0.523l1.569,2.615h-1.046l-4.707,2.615l-2.615,2.615l-2.092,4.184l0.523,2.092l3.138,0.523l2.615-1.046
		l18.305-1.569l2.615-2.615l3.661-1.569l3.661-1.046l2.615-1.046l10.983-1.569h4.707l0.523-2.615l2.615,1.569l2.092-0.523
		l-0.523-2.092l1.569,0.523l0.523,1.046h1.046l0.523-2.092l2.615,1.046v1.046l-4.184,3.138l-3.138,2.615v2.615l2.615,3.138
		l4.184,1.046v1.046l-2.092,2.615l-2.092,0.523l-2.092-1.569l-0.523,0.174l-2.092-0.697l-2.092,0.523v2.615l1.046,2.092l1.569,2.092
		l1.046,2.615l-3.138,0.523l-3.138-2.092h-0.523l-1.046-0.523l-0.392,0.523h-0.131l-0.418,0.732l-0.628,0.837l-0.116,0.465
		l-0.93,1.627l-2.092,3.138l-0.055,0.44l-0.991,1.652l-0.523,2.615l-0.523,4.707l-1.569,1.569h-2.615l-1.046-3.661l-1.046-0.523
		l-1.046,3.661l-2.092,3.138v1.569l1.569-0.523l-0.523,1.046l-4.184,2.092h0l-1.046,0.523l-0.523,1.569h-1.046l-0.644,0.483
		l-1.971,0.563l-1.569,0.523l-2.663,1.997l-4.311,2.536l-7.148,3.574l-4.184,1.83l-0.784,0.523l-4.446,2.092l-7.845,4.184
		l-12.029,5.753l-8.368,4.707l-0.523,1.569h2.615l4.184-1.569l7.322-2.615l7.845-3.661l0.523,1.046l-3.138,2.092l-6.276,2.092
		l-6.799,4.184v2.615l2.092-0.523l3.626-0.453l-0.488,0.976l-2.615,2.092h-5.23l-0.523-2.092h-2.615l-3.138,1.046l-4.184,1.046
		l-2.615,1.046h0l0,0l-18.305,7.322l-10.27,3.851l-6.466,1.902l-8.891,3.661l-5.753,2.615v1.569l1.046,1.569h-1.046l-6.276,2.092
		v1.569l3.661-0.523h4.184l-0.523,1.569l0.523,3.138l-1.569,1.046l-2.092,2.092l2.092-0.523l4.707-0.523l-2.615,2.615l-0.523,2.615
		l3.138,1.831v0.262l3.138,1.569l0.523,2.092h-1.046l-0.349,0.697l-0.697,0.349v1.569l5.23,1.046l-0.523,3.661h1.046l1.627,0.407
		l0.465,3.254l1.569,0.523l2.615-0.523l3.661,0.523l2.615-1.046l5.753-1.046l4.184-2.092l0.523-1.569l-7.845,0.523l-3.661,2.092
		v-1.046v-2.092l-1.62-1.89l0.051-0.202l-1.308-1.308l0.785-0.784l2.092-0.523h0.523l5.753-1.569l4.707-2.092l3.661-0.523
		l0.976-0.558l0.07,0.035l2.615-1.569l7.322-1.046l10.983-3.138l6.799-1.046l7.322-2.092l9.937-3.138l3.138-0.523l2.092,1.046
		l1.046-1.569l4.707-1.569l2.615,0.523l1.046-2.615l2.615-1.046l1.569-1.569h1.046l0.523,2.615h2.092l0.224-0.523h0.299l0.598-2.092
		l0.448-1.046l-0.08-0.241l0.08-0.282l-0.209-0.105l-0.837-2.51l6.799-1.046l0.523-1.569h1.569l2.615-1.569l1.674,0.837l0.157,0.471
		l-1.307,1.307l-5.23,3.661l-3.138,2.092l-1.997,2.282l-0.095-0.19l-0.523,0.523l-0.065,0.261l-0.981,1.308l-2.092,1.046
		l-0.719,0.523h-0.327l-0.523,0.523l-0.075,0.149l-3.201,2.328l-2.477,1.445l-5.753,2.877v0l-5.23,2.092l-4.184,1.569l-8.368,3.661
		l-0.523,1.569v2.092h3.138l-0.523,0.523l-7.322,3.138l-7.845,2.092l-10.983,3.138l-4.707,1.046l-1.046,2.092l-6.799,1.569
		l-5.753,2.615l-5.23,1.569l-1.046,1.569l2.615,1.569l-1.046,3.661l10.46-1.046l3.138,0.523l-1.046,3.661h3.138l6.799-1.569v-0.042
		l16.736-3.619l5.23-0.523l0.209-0.07l0.837,0.07l0.209-0.418l0.314-0.105h2.615l6.799-0.523l5.753-1.569l4.707-2.092l6.799-2.092
		l5.23-0.523v2.615l4.184-1.046h6.276l3.661-2.092l12.552-4.184l6.276-3.138l4.184-2.615l9.937-4.707l9.414-3.661l2.092-2.615
		l5.23-2.092l1.569-3.138l2.092-1.046l5.23-4.707l4.707-1.569l2.092-1.569l2.092-3.138l5.23-3.138l3.661-3.138l1.046-2.615
		l3.661-1.046l15.69-5.23l10.46-0.523l5.23,1.046l1.121,0.498l-0.075,0.025l3.661,1.569h10.46l7.322-0.523v7.322l-0.523,1.046
		l-1.569,8.368l-1.22,2.441l-1.395,1.743l-4.483,4.109l-3.362,2.69l-4.707,4.184l-0.523,2.092h1.569l3.138-2.092l0,0l1.569-1.046
		l0.551-0.688l3.633-2.973l2.092-1.046v1.569h-1.046l-1.569,1.569v1.569l3.046-1.015l-0.431,2.584l-1.046,1.569l-0.523,2.092h1.569
		l3.661-1.569l0.523,1.046h-1.046l-4.707,4.707l-1.046,2.615l-1.046,2.615l0.149,0.075l-0.149,0.448l0.628-0.209l0.418,0.209
		l1.464-0.837l0.628-0.209l2.14-0.856l0.998,0.333l0.747,8.592l0.299,6.575l3.138-0.523l2.092,6.276l2.615,6.799l2.092,2.615
		l3.138,2.092l2.615,2.092l5.23,3.138l3.661,0.523v-1.046l-4.707-2.092l-2.092-1.046v-1.046l-0.837-1.046l-0.209-0.523h-0.209
		l-0.837-1.046l-3.138-4.184v0l4.707,4.184l4.707,3.138l3.138,0.523l-0.523-2.092l-0.483-0.422l-0.04-0.101l-0.523-0.392
		l-3.138-2.746l-1.569-3.138l2.615,1.046l2.615,0.523l1.046-2.615l2.092-0.523l3.661-0.523l3.661,3.661h5.753l5.23-1.046
		l9.937,2.615l4.184,2.615l0.209,0.021l0.837,0.502l5.23,1.046l2.615,1.569l1.046-0.523h2.615l0.654,0.262l0.392,0.261l0.116-0.058
		l1.453,0.581l4.707,1.569l-1.046-3.661h5.753l1.569,0.523l2.615,0.523v-1.046l-2.092-2.092l-1.046-1.046v-2.615l7.322-3.138
		l1.569-1.569h1.569l1.046,0.523l0.785-0.196l0.784,0.196l0.143-0.428l0.38-0.095l-0.161-0.563l0.161-0.483l-0.837-1.883
		l-0.209-0.732l-0.285-0.38l-0.063-0.143l-0.174-0.523l-0.523-3.138l2.092-1.569l3.661,0.523l6.799,2.092l1.569-0.523l-1.046-2.615
		l3.138,0.241V724h3.661l0.523-2.092l4.707-1.046l2.615-2.092l1.426-3.804l3.804-1.426l0.523-1.569l2.615-2.615l4.184-0.523
		l0.523-0.523l-0.116-0.697l0.116-0.349l-0.209-0.209l-0.314-1.883l5.753-0.523l3.138-1.046l4.184-3.138l2.615-2.615l4.707-4.184
		l0.523-2.615l-2.092,1.046l0.523-3.138l1.569-4.707l0.143-0.713l1.426-4.517l2.092-1.569l0.523-4.184l-2.092-2.092v-3.661
		l1.046-7.322l1.046-1.046l2.615,6.799l2.092,4.184l6.799,2.092h6.799l4.707,3.138l5.23,7.322l2.615,4.109v0.075l0.314,0.418
		l0.732,1.151l0.837,0.941l1.255,1.674l0.805,0.644l1.287,1.448l0.149-0.299l0.374,0.299l-0.174-0.697l0.174-0.349l-0.465-0.814
		l-0.058-0.232l-0.314-0.419l-1.255-2.196l3.138,2.615l0.523-1.569l-2.092-4.707l-2.615-6.276l1.046-0.523l3.138,2.092l8.368,2.092
		l4.184,3.661l2.092,1.046l-0.523-3.661l1.046,0.523l2.092,0.523v-1.569l-2.092-2.615l-0.523-2.615l3.661-0.523l5.753-1.569
		l2.615,0.523l1.046,1.046l3.138,5.753l4.184,6.799l2.092,1.046l-1.569-5.753h4.707l0.523-1.046l-0.512-4.607l1.558-4.284h2.615
		l2.092,0.523l5.579,0.93l0.697,1.162l1.569,0.523l0.523-1.046h2.092l4.184,2.092l0.523-2.092l4.707-0.523v-0.523v-1.569
		l-0.279-0.139l-0.244-1.953l2.092-2.615v-6.799l-0.523-1.046h-1.046l0.418-1.674l1.674-2.51v-3.661l-1.046-1.569l-0.523-2.615
		l0.523-0.523h0.523l0.523-1.046l0.523-10.46v-17.782l-1.046-0.523l-1.569,1.569l-2.092,6.276l0.262,0.087l-0.262,0.959l-5.23,0.523
		H675.1v-7.322l0.523-3.138h1.046l1.046-2.092l0.523-16.213l0.523-2.092l0.523-6.276l0.523-4.184l0.523-8.891l3.661-1.046v-1.569
		l-2.615-1.046v-1.569l1.046-2.092v-5.753v-0.523l-0.523-0.262l-0.523-0.784l1.046-1.046l-1.046-2.092v-6.276h2.615l0.523-2.092
		l-2.092-1.046l-1.046-2.092v-4.707l1.046-6.799l1.046-0.523v1.046h1.046l-1.046-4.184v-9.937h1.569l2.092-0.523v-2.615l0.523-3.138
		l-1.046-1.569l-2.615-1.046l0.523-5.23l1.046,0.523h3.661v1.046h1.046v-2.092L688.698,508l-0.523-2.615l0.523-4.707l1.569-2.092
		l2.092-1.046l2.092-3.661l0.523-6.799V472.959z M661.502,332.271v-0.697l1.046-0.349v1.046H661.502z M665.163,332.794l0.116-0.232
		l0.93,2.324h-1.046l-0.56-0.187l-0.486-2.428L665.163,332.794z M591.942,70.77l1.569,0.523l2.615-0.523l8.891-1.569l-1.046,2.615
		h-1.046l-1.046,2.615l-7.322,2.092l-5.23,1.569l0.523-1.046l-1.046-2.092h-4.184v-1.569l2.615-1.569L591.942,70.77z
		 M652.088,62.401l-0.747,0.374l-0.299-0.897l1.121,0.374L652.088,62.401z M550.102,108.949l-0.523,1.046l-3.138,0.523v-1.046
		l2.615-0.523H550.102z M641.627,64.145l3.138-0.697l4.184-0.523l-1.046,0.523l-11.506,4.184l-14.644,6.276l-0.523-1.046
		l1.569-1.569l-0.149-0.075l2.241-1.494L641.627,64.145z M268.726,185.83l1.046,0.523l-1.046,0.523V185.83z M272.91,188.968
		l-1.569-1.046v-1.569h2.092l3.138,1.046v1.569H272.91z M177.724,603.187l-0.837-0.418l0.314-0.628L177.724,603.187z
		 M171.971,609.463l-0.392,0.196l-0.131-0.196l-1.046,0.784l-0.523,0.262v-1.046l1.569-1.569h1.046L171.971,609.463z
		 M172.494,606.848l2.092-2.092h0.523l0.285,0.285l-2.377,2.853L172.494,606.848z M651.042,600.572l-1.569,4.184l-2.615-1.046
		l-4.184,0.523l-1.046-2.092v0.349l-0.174-0.581l0.174,0.232l-0.523-3.138v-3.661l1.046-1.569l0,0l1.046-1.569l1.569-4.707v-4.184
		v-3.661l1.046,0.523l2.092-0.523l-0.523-2.615v-1.569l-4.707-1.046l1.046-2.615l-0.523-2.092l0.523-5.23h1.046l0.523,2.615
		l1.569,0.523l2.615-2.092l0.04-0.161l0.483-0.362l-0.196-0.784l0.196-0.784l-0.471-0.314l-0.052-0.209h-0.261l-0.784-0.523h-3.661
		l0.523-6.799h1.046l0.523-1.046l0.143-1.284l0.38-1.331l1.046-3.138v-5.753h-2.092v-3.138h1.569l2.092-1.046l2.092-2.092
		l0.872-2.179l0.697,0.087l-0.523-1.046l-4.184-0.465v-1.627l4.707,0.523l1.046,1.569v3.138l-1.046,1.569l1.046,4.184h0.523h1.046
		h0.523l0.465-4.649l0.494-0.494l2.179,0.436v3.661l1.046,2.615l-1.902,0.951l-1.027-0.114l-1.255-0.314l-0.483,0.121l-1.086-0.121
		l-0.523,0.523v10.46l0.523,0.523l1.569-1.046v-7.322h2.615l1.569,1.569h1.046l1.046-9.414v-7.845l-0.523-1.569l-2.615,0.523
		l-2.092,2.615v-5.23l0.523-8.368l-0.523-8.368h0.523l1.046-8.368l0.697-0.349l0.349,0.349l-0.523,2.615v5.753l2.615,0.523
		l1.046-1.046l-0.523-2.092l1.046-5.753l-0.291-0.581l0.814-2.034v-4.184l-1.046-2.092l1.046-2.615l1.046-6.799l1.046-3.661h1.046
		v7.322l-0.523,9.937v10.983l-0.523,3.661l-0.523,8.891l-1.569,20.92l-0.523,7.322l-0.523,7.845l-1.046,10.983l-0.523,5.23v0h-0.523
		l-1.046,10.46v-6.276l-0.425-2.975l0.425-3.824l-1.569-0.523l-0.523,0.523v2.092l-0.523,5.753l-1.046,21.966l-0.471,3.295
		l-1.098,0.366v-1.046l-0.465-0.814l-0.058-0.232l-0.314-0.418l-1.255-2.197H651.042z M182.954,336.978h-1.046l-2.615,2.092
		l-5.753,3.138l-1.046-3.661h-2.615l0.523-1.046l1.121-0.672l0.448,0.149l1.046-1.046l1.046-2.615l3.661,0.523l2.092-1.569
		l4.707-3.661l5.23-4.184l4.184-3.138l0.366-0.314l1.726-1.255l-0.188-0.063l1.757-1.506l2.615-2.615l2.615-2.092l2.615-3.661
		l0.38-1.521l0.585-0.732l0.08,0.161l4.184-4.707l5.23-4.184l4.707-2.615l0.523-1.569l-1.046-0.697v-0.648l0.784-0.224h0.785
		l1.046,2.092l2.615,1.046v1.046l-1.046,0.523l-1.569,1.569v4.707l-0.523,1.046l-2.615,1.046v1.046l-1.541,1.321l-0.551-0.275
		l-1.569,1.569l-4.184,3.138l-3.661,4.184l-2.615,2.092l-3.661,1.046l-1.569,3.138l-2.615,2.092l-5.23,3.661l-1.046,2.092h-1.046
		l-3.661,3.138l-3.661,2.092l0.571,0.143L182.954,336.978z M275.002,214.595h0.523l-2.092,1.569v-2.092l1.255,0.314L275.002,214.595
		z M523.429,129.869l-2.414,0.483l-0.096-0.064l0.941-0.941L523.429,129.869z M521.337,151.312l2.615-2.092l-2.615,2.615v0.224
		l-0.174-0.05l-0.174-0.349L521.337,151.312z M675.1,593.25l0.523-2.092h0.523l0.523,2.615L675.1,593.25z M267.68,688.959
		l0.941,0.314l0.105,0.209h-1.046V688.959z M534.196,150.912l-3.446,3.015l-0.392-1.177l0.392-0.392l4.184-3.661L534.196,150.912z
		 M258.266,552.978v-2.615l2.615-0.523l3.661-1.569h1.569v1.046l-2.615,2.092l-3.138,2.092L258.266,552.978z M119.147,605.279h1.046
		l-0.314,1.569h-0.732V605.279z M488.388,152.358l5.23-2.092l7.555-2.266l-0.232,0.174l3.138-0.523v0.784l-4.707,2.354l-10.46,4.184
		l-1.046-0.523L488.388,152.358z M298.014,662.809l1.569-0.523l0.523-0.523l1.046-0.523h0v0l1.046-0.523l4.234-1.245l4.018-0.731
		l-1.453,1.453l0.261,0.087l-1.307,0.436l-4.707,2.615l-0.38,0.951l-0.143,0.095h-1.046l-3.661,1.569V662.809z M299.06,670.131
		l2.615-2.092l5.099-1.569h0.131l0.209-0.105l1.36-0.418l3.661-3.138l2.615,0.523l2.092-1.046l-1.569-1.046v-1.046h1.046l0,0
		l0.897,0.448l0.149,0.598l3.138-0.523l-0.523,1.569l-2.441,1.046l-2.789,1.046l-1.307,0.784l-2.354,0.784l-3.138,1.569
		l-0.126,0.188l-3.535,1.904l-3.138,1.046v0.261l-2.615,0.262L299.06,670.131z M428.572,713.1l-0.33-1.652v-3.138l1.395,0.465
		l1.22,1.627l0.523,2.092l-1.046,1.046L428.572,713.1z M428.765,682.683l-0.426-0.639l0.165-1.976h0.261l1.046-6.276l1.046-5.23
		l4.184,0.523l-0.523,4.707l-1.569,1.569l-2.615,6.276L428.765,682.683z M439.225,639.274l1.569,3.138v2.092l-2.092,1.569h-1.569
		l0.523-4.184l1.36-2.72L439.225,639.274z M469.559,164.387l-2.092-0.523l1.569-2.615l5.23-3.138l3.138,0.523l0.523,1.569
		L469.559,164.387z M415.69,646.073l-0.523-2.615l8.368-6.276l0,0l2.092-1.569l-0.349-0.174l0.349-0.349h0l2.092-1.569h4.184
		l0.523,0.523l-1.046,2.092l-5.753,4.707l-2.092,2.092l2.615-1.046l5.753-4.184l2.092-1.046v1.569l-0.628,2.301l-0.418-0.209
		l-1.046,3.661l-1.046,0.523l0.523-2.615l-0.523-1.569l-1.046,0.523l-0.666,0.761l-2.472,1.854l-4.184,4.707h-3.661h-2.092v0.209
		l-3.138,0.314L415.69,646.073z M366.528,647.642l1.046-1.569l7.845-5.23l6.276-3.661l-0.628-0.157l0.628-0.366l0.224,0.672
		l-0.224,0.897l-1.569,1.046l-5.753,3.661l-4.184,3.661l-1.438,1.046H366.528z M220.087,284.678l0.402,2.816l-0.507,0.845h-0.418
		l-3.661,2.615l-5.753,4.184l-3.138,2.092l-5.753,4.184l-3.138,1.569l-1.569,1.569l-4.184,1.569l-0.523,1.046l-3.661,4.184
		l0.105,0.052l-1.225,0.919l-1.494,0.598L184,312.397v-1.569l1.569-2.092l1.046-2.092l5.23-1.046l-0.523-2.092l-3.661-1.046
		l-1.046,1.569L184,305.598l-2.615,2.092l-4.184,3.138l-7.845,7.845l-3.661,1.569l0.523-2.615l4.184-3.661l5.753-4.184l7.322-5.753
		l7.322-5.23l0.523,2.092h3.138l0.523-0.523l0.523-2.092l-2.092-0.523l-0.262,0.131l-0.785-0.131l1.046-1.046l0,0l1.569-1.569
		l8.891-6.276l6.799-6.276l5.23-2.615l4.707-3.661l2.615-0.523l0.523,6.276h-0.523l-0.523,2.615h-0.523H220.087z M170.402,321.811
		l0.523,1.046l-1.569,0.523L170.402,321.811z M655.749,467.206l1.569,0.523v1.569h-2.092L655.749,467.206z M487.865,125.685
		l-3.138,0.523l0.523-2.092l9.414-4.184l8.891-3.138l2.092,0.523l-2.615,1.569L487.865,125.685z M345.608,171.709l-2.615,1.046
		l-1.569-2.615l4.184,0.523V171.709z M342.47,173.278h1.046l0.523,1.569l-2.615,2.615l-1.569-0.523l-0.523-2.092L342.47,173.278z
		 M276.048,217.21l3.661-1.046l2.615-1.046v1.046l-3.138,1.046l-2.615,2.615h-1.569l-1.046-2.615H276.048z M124.377,507.477
		l-0.523,1.046v-2.092h0.523V507.477z M141.636,554.024l2.092-1.046l0.523-1.569h2.092l-0.523,2.092l-4.184,3.661l-7.322,7.322
		l-3.138,2.615l-2.092,1.046l0.523-2.092L141.636,554.024z M128.038,573.376l6.799-7.845l2.615-2.615l2.092-1.046v-1.046
		l4.707-4.707h2.092v1.569l-5.753,6.276l-4.184,3.661l-8.368,8.891l-2.615,2.615l-0.523-1.046L128.038,573.376z M189.23,694.189
		l-8.891,1.976v-2.499h-1.046l0.523-1.046l2.615-0.523l1.046-1.046l5.23,1.046l1.395,1.395l0.174,0.697H189.23z M186.092,676.407
		l-0.523,0.523L184,678.499l-2.789,0.523h-4.01l-2.354,0.392l-0.233-0.039l6.248-1.922L186.092,676.407z M288.172,667.659
		l0.428-0.143l0.523-1.046l1.569-0.523l1.83-1.83l1.098-0.785h2.301v1.743l-1.046,1.395l-2.14,1.284l-0.475-0.238l-2.615,1.569
		h-2.615L288.172,667.659z M654.703,528.659l-0.523-0.261l-2.615-1.046l-0.523-2.615l-1.569,0.523v-2.615l-1.569-1.046l1.046-3.138
		v-4.184l2.092-0.523h1.046v1.046h2.615v3.138h-1.046l0.523,2.615l-0.523,3.138l1.046,1.569V528.659L654.703,528.659z
		 M659.933,496.494h1.046v3.661l-1.046-0.523V496.494z M662.548,479.235l-0.523,10.983h-0.523l-0.523,3.138v-6.799l-0.523-2.615
		l-4.184-0.523l-0.523,1.046v9.937h-1.046v3.661l0.523,1.046l0.105,1.569h-0.105l-0.523,2.615V508l-1.046,1.046l0.581,0.291
		l0.465,2.324l-5.23-1.046v-0.523l3.138-0.523v-0.523l-2.092-0.523L648.949,508v-14.121l-0.523-1.046l-2.615-1.569v-2.354
		l1.569-0.262l3.138-3.661l0.196-0.523h0.327l1.046-3.661l2.615,0.523v-1.569l-2.092-1.046v-1.046l1.569-1.046l-0.523-1.569
		l-0.523-2.615l1.046-0.523h4.707l2.092-0.523v-1.569l0.523-2.092l2.092,0.523L662.548,479.235z M667.255,474.005l0.523,1.569
		h-1.046L667.255,474.005z M666.209,471.913l0.523-2.092v-3.138h2.092l-0.523,5.753L666.209,471.913z M659.41,595.342h0.864
		l-0.317,7.298l-0.547,0.547V595.342z M659.933,586.451h0.523v3.138h-0.523V586.451z M660.456,590.635v0.523l-0.05,1.146
		l-0.473,0.946v-2.092L660.456,590.635L660.456,590.635z M667.255,462.499v-1.569h2.615l-0.523,2.092L667.255,462.499z
		 M678.238,545.656l-0.523,0.523l0.349,2.092l-0.349,1.046l-3.585,0.512l0.447-3.127v-2.877l0.523-0.784l-0.523-1.569l0.418-1.255
		l0.105,0.209l2.092,2.092h-1.046v1.046h2.615l-0.443,2.213L678.238,545.656z M527.09,147.128l-1.046,0.349v-0.349l0.523-0.262
		L527.09,147.128z M507.216,133.007l-1.958,0.851l-0.657-0.328l-8.891,4.184l0.385,0.128l-0.908,0.395v-1.569l10.983-5.23
		l6.799-2.615l2.092,0.523L507.216,133.007z M279.186,210.934l0.08-0.241l0.687,2.403l-0.244-0.07l-0.116,0.232l-1.453,0.291
		l0.523-1.046l-0.523-2.092L279.186,210.934z M219.041,263.758l3.015-1.723l0.076,0.201l-1.521,1.521l-1.046,2.092l-2.092,0.523
		l-0.523,1.569l-1.569,0.523l-0.523,1.569h-1.046l-3.138,2.092l-4.707,3.661l-2.615,2.615l-5.23,1.569l-0.872,0.61l-0.174-0.087
		l-4.184,3.138l-2.615,1.046l1.569-1.569l-0.288-0.096l0.16-0.148l0.651-0.279l2.092-1.569l0.92-1.533l0.201-0.186l-0.075,0.149
		l1.569-1.046l5.753-3.661l7.845-5.753l4.184-1.569l0.523-2.092h2.092l0.523-1.569H219.041z M193.937,270.557h2.092l0.523,2.615
		l-3.138,2.615l0.22,0.11l-0.743,0.413l-2.615,0.523l0.523-2.092l2.092-2.615l-0.125-0.498l0.857-1.071H193.937z M184.523,702.034
		v-1.046l-1.569-0.523l1.569-1.569l-0.241-0.121l3.379-1.448l2.354-0.523h2.353l3.661-0.523h3.661v1.046l-3.138,1.046l-0.19,0.38
		l-0.333,0.143l-6.276,2.092L184.523,702.034z M677.715,577.037l-0.523,10.983l-0.523,2.615h-1.046l-1.046-2.092l0,0l0.523-6.799
		l-0.523-3.661l-1.046-0.523l-1.046,2.615v4.184l-0.523,3.661l-1.569,1.569v-5.23l-0.523,0.261v-0.261l1.046-10.46v-9.937h0.523
		l0.523-3.661l1.046-2.092l0.523-6.276h1.569l0.052,0.261l-0.052,0.262l0.523,2.092l1.569,1.046v8.368l0.523,4.707V577.037z
		 M680.165,508h-0.359l-0.523,12.552l-1.046,0.523l-0.523-4.184l-2.615-1.046l-0.523-1.569v-4.184l0.523-3.138l1.569-4.707
		l2.092-0.523l1.569,0.523L680.165,508z M693.405,429.55h1.569v1.046l-1.569,0.523V429.55z M671.439,403.923l0.523-4.707
		l1.569-7.845h0.523l0.523,4.184l-2.092,15.167h-1.046V403.923z M657.318,194.721v1.569l-1.569,2.615l-3.661,5.23l-4.707,7.322
		l-2.092,1.046l-0.523-1.046l3.661-7.845l0.523-4.707l2.092-1.046l5.23-3.138H657.318z M527.613,127.254l0.785,0.262l0.261,0.262
		l-0.523,3.138h1.569l2.615-1.046l1.046,1.569h-1.046l-0.814,0.465l-0.232,0.058v0.075l-2.615,1.494l-4.184,3.138l-4.184,4.184
		l-7.322,5.23v0.105l-1.046,0.418l-1.569-2.092l3.138-3.661l7.322-4.707l4.184-3.138l0,0l2.615-1.569l-1.569-1.569v-0.654
		L527.613,127.254z M319.457,170.14h1.569l-1.569,4.707l-2.615,0.523l-0.523-2.092L319.457,170.14z M299.583,183.215v1.569
		l-1.046,0.523l-3.138,0.523l-2.092-1.569l-0.523-2.615l2.615,0.523L299.583,183.215z M224.271,248.068l3.661-3.138h1.569v4.184
		l-4.109,1.868l-0.598-0.299l-1.569,1.046l-0.523,3.661l-1.046,1.046l-3.661,1.569l-1.569,2.615l-5.753,4.184l-6.276,4.707
		l-2.615,0.523l-1.569-1.046l-2.615-0.523l0.523-1.046l3.138-2.615l6.276-4.707l0.134-0.224l0.389-0.299l5.021-2.51l-0.314,0.941
		l0.523,1.046h3.138l0.523-1.569l-2.615-1.046l1.569-2.615h-0.262l1.308-1.046L224.271,248.068z M208.058,331.225l-2.092,1.046
		l-4.184,2.615l-0.523,1.569l-1.046,2.615l-3.661,1.569h1.569l3.661-1.569l1.569,0.523l-0.523,2.615l-6.799,6.799l-4.707,3.661
		l-13.075,10.46l-5.753,4.184l-1.162,0.814l-0.93,0.232l-5.753,3.661l1.046-2.092l2.453-2.146l0.162,0.054l1.569-1.569l3.661-4.184
		l-1.046-0.523l-2.092,1.046v0.262l-2.092,1.307l-4.707,2.615l2.615-3.138l6.799-5.753l5.753-4.184l1.046-2.615h-1.569l-1.046,0.523
		l-2.197,0.732l-2.51,0.314l-3.138-0.523v-1.569l1.569-3.138l5.23-2.615l4.707-2.615l2.092-2.615l0.697-1.743l0.976-0.976
		l0.418,0.105l3.138-1.046l4.184-3.138l7.322-6.276l5.753-4.184l3.661-2.092v5.753h0.08l-0.08,1.046L208.058,331.225z
		 M146.866,585.405l-0.523-1.046l2.615-2.615l0.523,1.046L146.866,585.405z M277.094,682.16l1.046-0.523h2.092l1.046-1.569
		l3.138-2.092h1.046l-1.046,2.092l-4.184,1.569l-1.255,1.674l-1.883,0.941V682.16z M272.387,685.298h2.092l-0.523,1.569
		l-2.615,1.046L272.387,685.298z M563.7,685.821l-2.092,2.615l-3.923,2.615h-0.784l-2.092,1.569l0.523-1.569l4.184-3.661
		l-0.261-0.262l0.261-0.261l1.569-1.046l2.092-4.707l2.092-2.092l0.523,2.092L563.7,685.821z"/>
	<polygon points="363.913,710.925 366.528,710.925 368.097,709.356 368.62,706.741 367.574,706.218 361.298,706.218 
		361.821,704.126 363.913,703.08 363.39,699.419 360.252,699.419 356.068,700.465 356.591,699.419 358.683,697.327 359.206,695.235 
		353.453,693.666 353.976,690.005 347.177,690.005 344.562,692.62 335.671,698.896 328.872,705.695 328.349,706.218 
		327.826,706.741 325.734,708.833 324.848,711.046 323.642,711.448 321.026,714.063 318.411,715.632 316.842,715.109 
		314.75,715.632 316.319,718.247 317.365,718.247 317.365,719.293 318.411,719.816 319.98,719.293 322.596,716.678 328.349,713.54 
		328.675,712.723 328.872,713.017 329.918,710.402 330.441,709.879 334.625,709.879 334.102,710.402 329.918,712.494 
		326.257,716.678 326.257,716.88 322.073,721.385 322.596,723.477 327.303,722.431 327.785,721.828 327.826,721.908 
		331.487,717.201 333.579,716.155 336.194,714.063 339.331,711.972 341.293,710.795 344.039,709.879 346.131,709.356 
		345.085,713.017 351.361,710.402 355.545,709.879 355.545,713.54 359.729,713.017 	"/>
	<polygon points="53.249,426.935 48.019,422.228 44.358,421.705 39.651,421.705 35.99,423.797 22.392,430.073 21.346,432.165 
		22.392,435.303 25.53,436.872 34.944,439.487 38.605,441.579 43.312,441.579 46.973,440.01 55.864,436.872 57.956,434.257 
		57.433,430.596 	"/>
	<polygon points="355.022,130.392 357.637,127.777 357.637,122.547 355.022,119.409 349.792,119.409 347.177,120.455 
		344.562,123.07 345.085,127.777 347.7,130.915 353.453,130.915 	"/>
	<polygon points="367.051,129.346 368.097,130.392 368.62,130.601 369.666,131.438 369.927,131.438 370.712,131.961 
		376.988,131.961 381.695,129.869 383.264,123.07 383.264,119.409 381.695,117.317 377.511,114.702 370.712,114.702 
		368.097,115.748 364.436,119.932 364.436,123.07 365.482,127.254 	"/>
	<polygon points="348.223,101.104 349.078,104.812 349.269,106.334 349.379,106.114 349.792,107.903 351.361,109.472 
		352.816,109.654 352.93,109.995 355.545,109.995 357.637,108.949 358.683,106.857 358.683,102.673 357.637,99.535 355.022,97.443 
		351.361,97.443 350.315,97.966 	"/>
	<polygon points="340.378,719.293 340.901,716.155 339.332,716.155 337.24,717.201 332.533,721.385 326.257,725.046 
		325.734,726.615 327.303,728.185 330.964,730.276 332.533,727.138 	"/>
	<polygon points="728.446,68.155 728.446,64.493 726.354,59.786 725.308,59.786 724.785,61.878 722.693,62.401 721.124,60.832 
		719.555,60.832 719.555,61.878 721.124,62.924 720.601,66.586 723.216,69.201 727.4,69.724 	"/>
	<polygon points="116.009,196.813 119.147,198.382 123.331,198.382 124.377,197.859 128.038,194.721 131.699,189.491 
		131.699,183.738 131.176,182.692 127.515,179.554 118.624,179.031 114.963,180.077 111.825,185.83 111.825,191.06 112.871,193.152 
			"/>
	<polygon points="653.656,590.112 653.656,580.698 653.133,575.468 651.565,575.468 651.042,575.991 651.042,579.652 
		650.518,580.175 649.995,580.698 650.518,581.744 650.518,582.267 650.845,582.397 651.042,582.79 651.042,590.635 
		650.518,591.681 649.995,594.819 651.042,594.819 651.565,597.957 652.611,597.957 653.133,596.388 	"/>
	<polygon points="296.968,164.91 298.537,163.864 299.06,161.249 297.491,159.157 292.784,159.157 290.692,160.726 290.169,163.341 
		292.784,165.433 	"/>
	<polygon points="367.574,741.26 363.913,741.783 363.913,740.214 366.005,738.122 370.712,734.984 370.712,734.984 
		375.419,731.846 379.08,728.185 378.034,727.661 376.465,728.708 373.327,730.799 370.189,732.892 364.436,736.553 
		356.068,742.306 351.884,744.398 351.884,743.352 351.884,741.783 352.93,739.691 352.93,734.984 350.838,734.984 345.608,739.168 
		345.578,739.287 345.085,739.691 345.281,740.475 345.085,741.26 345.567,741.622 345.608,741.783 347.177,742.829 
		349.269,744.398 349.443,744.339 350.315,744.921 357.114,749.105 360.252,749.105 360.999,748.731 361.372,748.806 
		361.447,749.03 361.298,749.105 361.821,750.151 365.482,750.151 367.051,748.059 366.528,745.444 363.913,746.315 
		367.574,743.875 371.235,740.737 372.281,738.645 371.235,738.645 	"/>
	<polygon points="691.836,541.472 690.267,540.949 691.836,539.38 691.313,535.196 691.313,533.627 690.79,532.93 690.79,531.535 
		690.79,529.966 690.79,527.874 690.267,525.259 689.221,525.259 688.175,529.966 686.606,551.932 686.606,561.346 687.129,565.531 
		689.221,566.577 689.744,563.439 689.744,558.208 690.267,556.116 691.836,555.07 691.836,551.932 690.79,551.409 690.267,549.317 
		691.836,549.317 692.359,546.702 691.313,545.656 	"/>
	<polygon points="392.155,705.695 387.971,709.356 387.448,711.448 389.017,711.448 391.109,710.402 397.385,705.695 
		397.908,703.08 396.339,703.08 	"/>
	<polygon points="415.69,91.69 416.213,91.167 416.213,87.506 415.167,85.937 412.029,85.937 411.506,86.46 410.983,89.598 
		412.552,91.69 	"/>
	<polygon points="317.365,78.092 318.411,77.569 318.411,74.431 316.842,72.862 313.704,72.862 312.658,73.908 312.658,76.523 
		314.227,78.092 	"/>
	<polygon points="299.06,592.727 300.106,593.25 301.152,591.158 302.198,588.02 299.583,585.405 298.014,582.267 296.968,582.267 
		296.968,583.313 295.922,583.313 295.399,585.405 298.537,588.02 	"/>
	<polygon points="334.625,128.3 333.056,129.869 333.579,132.484 337.763,133.007 338.809,131.961 339.332,129.869 337.763,128.3 	
		"/>
	<polygon points="174.586,163.864 177.201,163.864 177.724,163.341 178.77,161.249 169.879,158.111 169.356,160.203 
		173.017,161.249 	"/>
	<polygon points="464.329,69.724 464.852,67.109 463.283,65.017 460.668,64.493 459.622,65.54 459.622,68.155 461.714,70.247 	"/>
	<polygon points="283.893,113.133 284.939,112.087 285.093,111.164 285.462,111.041 285.462,108.949 284.416,107.903 
		281.801,107.903 280.232,110.518 281.278,113.133 	"/>
	<polygon points="371.235,95.351 371.683,95.687 371.758,95.874 372.281,96.135 373.327,96.92 375.942,98.489 376.988,99.535 
		380.649,100.581 385.879,100.581 388.494,99.012 390.063,95.351 390.063,91.167 391.109,91.167 393.201,90.644 393.724,88.029 
		392.155,85.937 389.017,85.937 388.494,86.46 388.494,89.598 381.172,86.46 378.557,84.368 375.419,84.368 372.804,85.937 
		370.712,90.121 370.712,93.259 371.13,94.305 	"/>
	<polygon points="244.145,634.567 245.191,635.09 246.76,631.429 248.852,628.814 248.329,627.245 244.668,627.245 244.145,629.86 	
		"/>
	<polygon points="79.399,346.915 79.399,343.254 78.353,341.685 75.215,341.162 75.215,345.346 76.784,346.915 	"/>
	<polygon points="202.828,220.871 204.397,221.394 205.443,218.779 206.489,218.256 207.012,216.164 205.443,214.595 
		203.874,214.072 203.351,216.164 202.305,216.164 201.782,218.256 202.828,218.256 	"/>
	<polygon points="704.911,502.247 703.865,503.816 701.773,504.339 701.773,505.908 703.342,508 705.434,508 707.526,504.862 
		707.003,502.77 	"/>
	<polygon points="253.559,182.692 253.559,183.738 254.605,183.215 254.605,180.6 253.036,180.6 250.944,180.6 250.421,179.554 
		248.329,179.554 245.714,181.123 246.76,182.692 	"/>
	<polygon points="578.344,60.832 586.712,57.694 584.62,57.171 573.637,60.832 567.361,63.447 569.453,63.97 	"/>
	<polygon points="415.69,83.845 418.305,86.983 420.92,87.506 420.92,85.414 418.305,81.753 415.69,81.23 	"/>
	<polygon points="766.625,437.918 765.579,438.441 765.056,441.056 766.102,442.102 768.717,442.625 770.286,441.056 
		769.763,438.441 	"/>
	<polygon points="157.85,258.005 158.896,256.436 157.327,254.867 156.281,252.775 154.189,252.252 153.665,252.775 
		153.143,255.913 155.758,257.482 	"/>
	<polygon points="687.652,587.497 686.606,587.497 686.083,588.02 686.083,596.911 686.606,599.003 688.175,599.526 
		688.698,597.434 687.652,595.865 	"/>
	<polygon points="223.225,233.947 225.84,232.378 226.363,229.762 223.748,229.239 221.656,227.147 221.133,227.67 222.179,232.9 	
		"/>
	<polygon points="226.363,194.721 227.409,193.675 227.409,190.537 226.886,190.014 224.271,189.491 223.225,192.629 
		223.748,194.198 	"/>
	<polygon points="166.218,194.721 169.356,196.813 171.448,196.29 175.109,195.767 176.155,194.198 170.925,191.583 
		167.264,191.583 166.218,192.106 	"/>
	<polygon points="204.397,290.431 202.828,292 202.305,295.138 204.92,295.661 206.489,294.092 205.966,290.431 	"/>
	<polygon points="138.407,623.015 138.778,622.592 139.021,622.538 141.113,619.923 144.774,616.262 145.297,614.17 143.728,614.17 
		142.682,615.739 139.544,617.831 133.791,622.015 130.13,626.199 127.515,628.814 123.331,628.814 122.808,629.337 
		122.808,629.337 122.634,629.511 121.762,630.383 121.762,630.383 121.239,630.906 120.716,634.567 122.285,634.567 
		125.946,632.998 130.653,630.383 134.837,626.722 137.452,624.107 137.452,624.107 137.452,624.107 138.498,623.061 	"/>
	<polygon points="732.63,401.831 733.676,400.785 734.199,397.647 733.153,396.6 728.969,396.077 728.446,397.124 727.4,399.739 
		729.492,401.831 	"/>
	<polygon points="711.71,414.383 707.003,414.906 706.48,416.998 712.233,416.998 713.279,416.475 713.802,414.906 	"/>
	<polygon points="628.029,91.167 625.414,93.782 627.506,94.305 632.736,91.69 632.736,90.644 628.552,90.644 	"/>
	<polygon points="652.611,549.84 652.088,548.271 649.472,548.271 648.949,552.455 651.042,553.501 	"/>
	<polygon points="275.002,621.492 272.387,621.492 270.818,622.015 269.772,624.107 271.864,624.63 275.525,624.107 	"/>
	<polygon points="463.283,74.431 463.806,73.908 463.283,71.293 460.668,70.77 459.099,71.293 459.099,72.862 460.668,74.431 	"/>
	<polygon points="177.724,673.269 197.598,665.139 199.69,664.378 199.585,664.326 200.736,663.855 209.104,660.717 
		209.627,659.148 207.535,659.148 202.454,661.24 202.305,661.24 198.644,662.809 198.644,662.892 197.598,663.332 190.799,665.947 
		175.632,672.223 173.54,673.792 	"/>
	<polygon points="700.204,435.303 699.681,432.688 697.066,431.642 696.543,436.349 698.112,436.872 	"/>
	<polygon points="383.264,132.484 384.31,134.053 386.925,134.053 387.448,133.007 386.925,130.915 383.787,130.392 	"/>
	<polygon points="732.107,530.489 730.538,531.535 730.538,532.581 733.153,534.15 735.245,533.627 734.199,531.012 	"/>
	<polygon points="698.635,506.431 700.204,505.908 699.681,503.293 696.02,503.293 695.497,505.908 697.066,505.908 	"/>
	<polygon points="361.298,731.846 362.344,729.753 361.298,729.753 357.637,733.938 357.114,736.03 358.683,736.03 	"/>
	<polygon points="359.206,725.569 360.252,725.569 361.298,724 361.298,722.431 356.591,725.569 356.068,727.661 358.16,727.661 	
		"/>
	<polygon points="696.02,63.97 693.405,61.356 690.267,60.309 689.744,61.878 694.451,64.493 	"/>
	<polygon points="309.52,161.249 311.089,161.772 312.135,163.341 313.181,163.341 314.227,161.772 313.704,160.203 312.135,159.68 
		310.043,159.157 	"/>
	<polygon points="385.356,713.017 383.264,712.494 382.218,713.017 378.034,716.678 378.034,717.724 382.741,715.109 	"/>
	<polygon points="120.193,639.274 114.44,639.274 111.302,640.843 109.733,643.981 109.733,648.165 110.256,649.211 
		110.779,650.257 111.778,651.113 112.348,651.826 113.133,652.274 114.44,653.395 115.094,653.395 116.009,653.918 
		120.193,653.918 123.331,651.826 124.9,648.688 124.9,645.027 122.808,641.366 	"/>
	<polygon points="691.313,523.69 691.313,517.937 689.744,517.937 689.221,524.213 690.79,524.736 	"/>
	<polygon points="650.388,80.576 649.995,80.184 647.904,79.661 647.38,81.23 642.673,82.799 642.673,84.368 645.811,84.368 
		649.472,83.322 651.042,82.276 651.042,82.145 651.565,81.753 651.042,81.23 651.042,80.707 	"/>
	<path d="M345.085,733.938h1.046v1.046l2.092-0.523l0.523-2.615H347.7l1.569-2.615l0.523-3.138H347.7l1.046-1.569h1.046v1.569h1.046
		l0.814-0.465l0.232-0.058l0.174-0.174l2.441-1.395l0.523-1.569l-2.615-0.523l1.046-3.661l1.569-2.615l0.523-2.092h-1.046
		l-3.138,2.615l-4.184,2.092v-1.046l-1.046-0.523l-4.184,1.569l-3.138,4.184l-4.707,5.753l-2.615,2.092l0.523,2.092l3.138,2.615
		l4.707,3.138l2.615,1.046l1.569-2.615l0.465-1.162l0.058,0.116L345.085,733.938z M345.608,726.615h0.174l0.349,1.046l-2.092,0.523
		L345.608,726.615z"/>
	<polygon points="220.087,300.368 216.949,299.322 215.903,300.368 215.903,302.983 217.472,302.983 	"/>
	<polygon points="290.692,590.635 289.646,590.635 288.077,591.681 287.554,593.773 289.123,594.296 291.215,593.773 	"/>
	<polygon points="254.003,196.802 253.559,195.767 249.898,195.767 249.375,197.859 248.852,200.474 249.375,202.043 
		251.99,202.566 251.99,201.52 255.128,201.52 255.128,200.997 255.651,200.997 255.128,199.428 254.082,196.813 	"/>
	<polygon points="367.051,718.247 366.005,717.724 362.344,718.77 360.775,720.862 364.436,720.862 	"/>
	<polygon points="77.307,360.513 77.83,362.605 80.968,363.128 80.445,360.513 77.83,359.99 	"/>
	<polygon points="308.474,169.617 306.905,166.479 304.29,166.479 303.767,168.571 306.905,168.571 306.905,170.14 	"/>
	<polygon points="426.15,88.029 425.627,85.937 423.012,85.414 422.489,87.506 424.058,88.552 	"/>
	<polygon points="561.608,66.586 563.177,65.54 560.562,65.54 552.194,68.678 554.286,69.201 	"/>
	<polygon points="216.426,281.54 215.903,283.632 217.472,283.632 219.041,282.586 220.087,279.971 218.518,279.971 	"/>
	<polygon points="416.736,75.477 416.736,72.862 414.644,72.339 414.121,72.862 413.598,74.954 414.644,76 	"/>
	<polygon points="707.526,442.625 707.526,444.717 710.141,445.24 711.187,443.148 708.572,442.102 	"/>
	<polygon points="385.356,69.201 385.879,67.109 383.787,66.062 382.741,66.586 382.741,69.201 383.787,69.724 	"/>
	<polygon points="393.201,725.395 393.201,725.046 390.586,725.046 389.54,725.569 385.879,728.708 380.126,732.892 
		376.465,734.461 373.85,737.076 375.942,737.599 378.557,736.553 383.264,733.414 389.017,729.753 390.986,728.277 
		391.632,728.185 392.416,727.204 393.201,726.615 393.201,726.223 393.724,725.569 	"/>
	<polygon points="123.854,363.651 121.762,363.651 121.239,364.697 121.762,366.789 124.377,366.266 	"/>
	<polygon points="672.485,328.61 674.577,329.133 675.1,326.518 672.485,325.995 671.962,326.518 	"/>
	<polygon points="215.903,232.9 215.38,230.286 212.765,230.286 212.242,230.809 213.288,232.9 	"/>
	<polygon points="228.455,222.44 230.547,225.578 232.639,224.532 235.254,221.917 235.777,218.256 234.731,217.21 231.593,217.21 
		228.455,220.348 228.455,220.871 227.932,220.871 	"/>
	<polygon points="342.993,80.707 344.039,81.753 348.223,81.753 350.838,79.138 350.838,76 348.746,73.908 344.562,73.385 
		343.516,73.908 341.424,76.523 341.424,79.138 342.993,80.707 	"/>
	<polygon points="248.329,211.98 244.145,211.457 244.145,213.549 248.329,213.549 	"/>
	<polygon points="702.296,447.332 700.727,446.286 699.681,447.332 699.158,449.947 701.773,449.424 	"/>
	<polygon points="362.867,129.869 363.913,126.731 361.821,126.208 360.775,127.777 361.298,129.869 	"/>
	<polygon points="663.071,523.69 663.594,521.598 660.456,520.029 659.933,520.552 660.979,523.167 	"/>
	<polygon points="261.404,215.641 261.927,213.026 260.358,212.503 258.789,215.118 	"/>
	<polygon points="163.603,165.433 166.741,165.433 166.741,164.387 163.08,162.295 160.465,161.772 159.942,163.341 
		158.373,163.341 158.373,164.387 160.465,165.433 	"/>
	<polygon points="533.889,76 531.274,76 530.751,78.092 533.366,78.615 	"/>
	<polygon points="449.685,68.678 454.392,68.678 454.915,66.062 452.3,63.447 449.685,62.924 448.639,63.447 447.593,65.54 
		448.116,67.631 	"/>
	<polygon points="663.071,526.828 661.502,525.259 660.456,525.782 660.456,526.828 662.025,529.443 663.594,529.443 	"/>
	<polygon points="700.727,298.799 700.204,301.414 702.296,301.414 702.819,298.276 701.25,298.276 	"/>
	<polygon points="674.577,238.131 675.623,234.993 674.577,234.993 673.008,237.608 672.485,240.223 	"/>
	<polygon points="171.971,188.445 171.448,187.399 167.787,187.399 167.787,188.968 171.448,189.491 	"/>
	<polygon points="699.681,521.075 702.296,521.598 702.819,519.506 700.727,518.983 	"/>
	<polygon points="143.205,260.62 143.205,258.005 141.113,258.005 140.59,258.528 141.113,260.62 	"/>
	<polygon points="307.428,153.404 306.905,151.835 305.336,151.312 304.813,153.927 306.905,154.45 	"/>
	<polygon points="664.117,299.322 664.117,296.707 662.548,296.184 662.025,298.799 	"/>
	<polygon points="210.673,284.678 209.627,286.77 211.719,286.77 213.288,284.678 211.719,284.155 	"/>
	<polygon points="242.053,207.796 242.053,205.704 239.961,205.181 239.438,207.273 	"/>
	<polygon points="171.448,182.692 168.833,182.692 168.833,184.261 171.971,184.784 	"/>
	<polygon points="294.876,139.806 294.876,138.237 291.738,136.668 291.738,138.237 292.784,139.283 	"/>
	<polygon points="733.153,294.615 736.291,295.138 736.291,293.569 733.153,293.046 	"/>
	<polygon points="214.857,224.532 213.288,224.532 212.242,225.055 212.242,226.624 214.334,227.147 	"/>
	<polygon points="720.601,395.555 723.216,395.031 723.216,393.462 720.601,393.462 	"/>
	<polygon points="277.617,169.094 277.094,165.956 275.525,165.433 276.048,169.094 	"/>
	<polygon points="190.799,125.685 189.23,125.162 188.184,125.685 188.184,127.254 190.276,127.777 	"/>
	<polygon points="442.363,102.673 440.271,102.15 439.748,104.242 441.317,104.765 	"/>
	<polygon points="696.02,440.01 696.02,444.717 697.066,444.717 697.589,440.01 696.543,439.487 	"/>
	<polygon points="336.717,92.736 333.056,92.213 332.533,93.259 336.194,93.782 	"/>
	<polygon points="224.794,591.158 224.794,594.296 226.363,593.773 226.363,591.158 	"/>
	<polygon points="732.107,516.368 733.153,518.46 734.722,517.937 734.722,516.368 732.63,515.845 	"/>
	<polygon points="666.732,317.627 667.778,317.627 668.301,315.012 666.732,314.489 666.209,315.535 	"/>
	<polygon points="668.301,242.315 670.393,239.177 669.87,238.131 668.301,240.223 667.255,242.838 	"/>
	<polygon points="544.349,120.978 544.872,118.363 543.303,118.363 542.78,120.978 	"/>
	<polygon points="192.891,601.618 192.368,602.141 191.845,604.756 193.414,604.233 193.937,601.618 	"/>
	<polygon points="703.342,380.387 703.342,379.341 701.25,378.295 700.727,380.387 701.773,380.91 	"/>
	<polygon points="675.1,193.152 674.577,192.106 672.485,195.244 673.008,196.813 	"/>
	<polygon points="290.169,170.663 290.169,167.525 288.6,167.525 289.123,170.663 	"/>
	<polygon points="248.329,167.525 246.76,167.002 246.237,169.094 247.806,169.617 	"/>
	<polygon points="497.802,85.937 495.187,85.937 494.664,87.506 497.279,87.506 	"/>
	<polygon points="721.124,74.431 722.693,74.431 723.216,72.339 721.647,71.816 	"/>
	<polygon points="717.463,556.639 719.555,557.162 719.555,555.593 717.986,554.547 	"/>
	<polygon points="650.518,491.264 652.088,491.264 652.088,488.649 651.042,488.649 	"/>
	<polygon points="180.862,226.624 182.954,227.147 182.954,225.055 180.862,225.055 	"/>
	<polygon points="560.039,134.576 560.562,132.484 559.516,132.484 557.947,135.099 	"/>
	<polygon points="338.809,101.627 339.332,100.058 337.24,99.535 336.717,101.104 	"/>
	<polygon points="705.434,397.647 707.003,397.647 708.572,396.077 707.003,395.555 705.434,396.6 	"/>
	<polygon points="734.199,392.939 732.107,392.416 731.584,393.985 733.676,394.508 	"/>
	<polygon points="239.438,202.043 238.392,202.043 237.869,204.658 239.438,204.658 	"/>
	<polygon points="263.496,171.709 260.881,171.186 260.881,172.755 263.496,172.755 	"/>
	<polygon points="310.566,152.881 308.474,152.358 308.474,153.927 310.566,154.45 	"/>
	<polygon points="591.942,55.602 589.327,55.602 588.281,56.125 586.712,57.171 590.373,56.648 	"/>
	<polygon points="402.092,703.603 404.184,701.511 402.615,700.988 401.046,703.08 	"/>
	<polygon points="621.23,693.666 623.322,694.189 623.322,692.62 621.23,692.097 	"/>
	<polygon points="262.973,213.026 265.065,213.026 265.588,211.457 263.496,211.457 	"/>
	<polygon points="197.075,201.52 195.506,200.997 194.983,202.566 197.075,203.089 	"/>
	<polygon points="681.899,180.077 681.376,179.031 679.807,180.077 679.807,182.169 680.853,182.169 	"/>
	<polygon points="236.823,179.554 234.208,179.031 233.685,180.077 236.3,181.123 	"/>
	<polygon points="215.38,175.893 214.334,175.893 213.288,176.939 214.857,178.508 	"/>
	<polygon points="304.813,157.588 303.244,157.065 302.721,159.157 304.29,159.157 	"/>
	<polygon points="567.361,64.493 565.269,63.97 563.177,65.017 565.269,65.54 	"/>
	<polygon points="597.695,51.941 597.695,54.033 599.787,52.987 	"/>
	<rect x="341.947" y="689.482" width="3.138" height="1.046"/>
	<polygon points="253.559,632.475 253.036,633.521 255.128,634.044 255.651,632.475 	"/>
	<polygon points="249.898,615.739 249.898,616.785 251.99,617.308 252.513,616.262 	"/>
	<polygon points="660.456,565.531 660.456,562.916 659.41,562.916 658.887,563.439 659.41,565.531 	"/>
	<polygon points="697.589,537.811 697.589,539.38 699.158,539.38 699.681,537.811 698.635,537.288 	"/>
	<polygon points="704.388,534.673 706.48,535.196 707.003,533.627 704.911,533.627 	"/>
	<polygon points="698.635,525.259 696.543,524.213 696.02,525.259 698.635,526.305 	"/>
	<polygon points="717.463,401.308 719.555,401.831 720.078,400.785 718.509,399.739 	"/>
	<polygon points="704.388,388.755 702.296,388.232 701.773,389.278 704.388,389.801 	"/>
	<polygon points="188.707,226.624 187.661,226.101 186.615,226.624 186.615,228.193 188.184,228.193 	"/>
	<rect x="236.519" y="211.676" transform="matrix(0.3162 -0.9487 0.9487 0.3162 -39.3086 370.4688)" width="1.654" height="1.654"/>
	<polygon points="231.593,170.14 230.024,169.617 229.501,171.709 231.07,171.709 	"/>
	<polygon points="777.085,437.395 776.562,438.964 778.654,438.964 778.654,437.395 	"/>
	<polygon points="667.778,351.622 669.347,352.145 669.347,350.053 667.778,350.053 	"/>
	<polygon points="186.615,345.346 188.184,345.869 189.753,344.3 188.707,343.777 	"/>
	<polygon points="243.622,219.825 241.53,219.302 241.53,221.394 242.576,221.394 	"/>
	<polygon points="258.266,170.663 256.174,170.663 256.174,171.709 258.266,172.232 	"/>
	<polygon points="242.053,620.446 244.145,620.969 244.145,619.4 242.053,619.4 	"/>
	<polygon points="264.542,613.124 262.45,612.601 262.45,614.17 264.019,614.17 	"/>
	<polygon points="289.123,608.94 291.215,607.894 290.169,606.848 289.123,607.371 	"/>
	<polygon points="652.088,540.426 650.518,540.426 650.518,542.518 652.088,541.995 	"/>
	<polygon points="691.836,513.23 694.451,512.707 694.451,511.661 693.405,511.138 	"/>
	<polygon points="696.543,495.971 696.02,493.356 694.974,493.356 695.497,495.971 	"/>
	<polygon points="702.296,459.884 700.727,459.884 700.727,461.453 701.773,461.976 	"/>
	<polygon points="207.535,240.746 209.627,240.223 209.627,239.177 207.535,239.177 	"/>
	<polygon points="241.007,217.21 239.961,217.733 239.961,218.779 241.007,219.302 242.053,217.21 	"/>
	<polygon points="400,128.823 398.954,128.3 397.908,129.869 399.477,130.392 	"/>
	<polygon points="614.954,701.511 616,702.034 616.523,700.465 614.954,699.942 	"/>
	<rect x="279.709" y="609.986" width="1.569" height="1.569"/>
	<polygon points="238.915,597.434 238.915,599.003 239.961,599.526 240.484,597.957 	"/>
	<polygon points="716.94,379.864 718.509,380.387 719.032,378.818 717.463,378.818 	"/>
	<rect x="89.336" y="344.3" width="1.569" height="1.569"/>
	<polygon points="221.133,213.026 221.133,215.118 222.702,214.072 	"/>
	<polygon points="258.266,198.382 259.312,198.905 259.835,197.336 258.266,196.813 	"/>
	<polygon points="181.385,182.692 179.816,182.692 179.293,183.738 180.862,184.261 	"/>
	<polygon points="295.399,172.232 297.491,172.755 297.491,171.186 296.445,171.186 	"/>
	<polygon points="304.29,172.232 305.336,172.232 305.336,170.663 303.767,170.14 	"/>
	<polygon points="679.807,614.17 680.853,613.647 680.33,611.555 	"/>
	<rect x="673.531" y="572.33" width="1.046" height="2.092"/>
	<polygon points="682.945,546.702 683.991,546.179 683.991,543.564 683.468,543.564 	"/>
	<polygon points="692.359,515.845 693.928,515.845 693.928,514.799 692.359,514.276 	"/>
	<polygon points="698.112,508.523 696.543,508 696.02,509.046 697.589,509.569 	"/>
	<polygon points="717.463,389.801 717.463,388.232 716.417,388.232 715.894,389.801 	"/>
	<polygon points="669.87,346.392 671.439,346.392 671.439,345.346 669.87,344.823 	"/>
	<polygon points="708.572,320.242 710.141,320.242 710.141,318.673 709.095,318.673 	"/>
	<polygon points="197.075,296.707 198.644,296.707 198.644,295.138 197.598,295.138 	"/>
	<polygon points="195.506,263.235 193.937,262.712 193.414,263.758 194.983,264.281 	"/>
	<polygon points="678.761,238.654 678.238,239.177 678.761,240.746 679.807,238.654 	"/>
	<polygon points="661.502,239.7 662.548,237.608 661.502,237.608 660.979,238.131 	"/>
	<polygon points="181.385,229.762 180.862,231.332 182.954,230.286 	"/>
	<polygon points="245.714,217.733 244.668,217.733 243.622,218.779 245.191,219.302 	"/>
	<polygon points="273.433,202.043 275.525,201.52 274.479,200.474 273.433,200.997 	"/>
	<polygon points="275.525,197.859 273.956,197.336 273.956,198.905 275.525,198.905 	"/>
	<polygon points="267.157,176.416 265.588,176.416 265.588,177.462 267.157,177.985 	"/>
	<polygon points="597.172,73.385 595.08,72.862 595.603,74.431 	"/>
	<polygon points="184,693.666 185.569,694.189 185.569,692.62 184.523,692.62 	"/>
	<polygon points="74.692,612.601 76.261,613.124 76.261,611.555 75.215,611.555 	"/>
	<polygon points="660.456,567.1 659.41,566.577 658.887,568.146 660.456,568.146 	"/>
	<polygon points="99.796,563.961 99.796,565.008 101.365,565.531 101.365,564.484 	"/>
	<polygon points="117.055,551.932 118.624,551.932 118.624,550.363 	"/>
	<polygon points="663.594,515.322 663.071,515.322 662.548,515.845 663.594,517.937 	"/>
	<polygon points="709.618,487.603 710.664,487.603 711.187,486.557 709.618,486.034 	"/>
	<polygon points="656.272,477.143 657.318,477.666 657.841,476.097 656.272,476.097 	"/>
	<polygon points="714.848,403.923 715.894,404.446 716.417,402.877 714.848,402.877 	"/>
	<polygon points="665.163,404.969 665.686,403.4 664.117,403.4 664.117,404.446 	"/>
	<polygon points="671.962,369.927 670.916,369.404 670.393,370.973 671.962,370.973 	"/>
	<polygon points="700.204,359.99 700.727,362.082 701.25,359.99 	"/>
	<polygon points="711.71,344.3 713.279,344.823 713.279,343.777 711.71,343.254 	"/>
	<polygon points="118.101,314.489 118.624,312.92 117.055,312.92 117.055,313.966 	"/>
	<polygon points="152.096,263.758 150.527,263.235 150.527,264.804 151.573,264.804 	"/>
	<polygon points="680.33,258.528 680.33,259.574 682.422,259.051 	"/>
	<polygon points="664.64,228.716 665.686,228.716 666.209,227.147 665.163,227.147 	"/>
	<polygon points="208.581,213.549 207.535,213.549 207.012,215.118 208.058,215.118 	"/>
	<polygon points="234.731,202.566 233.162,202.043 233.162,203.089 234.731,203.612 	"/>
	<polygon points="266.634,196.29 265.065,195.767 265.065,197.336 266.111,197.336 	"/>
	<polygon points="203.874,195.244 202.828,194.721 202.828,196.813 203.874,196.813 	"/>
	<polygon points="682.945,176.939 681.899,179.031 683.991,177.462 	"/>
	<polygon points="300.629,172.232 300.629,171.186 299.583,170.663 299.06,172.232 	"/>
	<polygon points="712.756,71.816 711.71,71.816 711.187,73.385 712.233,73.385 	"/>
	<polygon points="259.835,609.463 259.835,610.509 260.881,610.509 260.881,608.94 	"/>
	<polygon points="245.714,599.003 244.145,598.48 244.668,600.049 	"/>
	<polygon points="728.446,537.288 730.015,536.765 727.923,536.242 	"/>
	<rect x="696.02" y="517.937" width="1.046" height="1.569"/>
	<polygon points="753.027,399.739 754.596,399.216 753.55,398.169 	"/>
	<polygon points="190.276,343.254 192.368,342.208 191.322,341.685 	"/>
	<polygon points="155.235,218.256 154.712,219.825 156.281,219.302 	"/>
	<polygon points="175.109,217.21 176.155,218.256 176.678,216.687 175.632,216.687 	"/>
	<polygon points="226.363,180.077 225.84,181.646 227.409,181.123 	"/>
	<polygon points="348.746,148.174 348.223,146.605 347.7,148.697 	"/>
	<polygon points="215.903,144.513 214.334,143.99 214.857,145.559 	"/>
	<rect x="324.165" y="90.121" width="1.046" height="1.569"/>
	<polygon points="542.78,72.339 541.734,73.385 544.349,72.862 	"/>
	<rect x="716.417" y="72.339" width="1.569" height="1.046"/>
	<rect x="435.564" y="68.155" width="1.569" height="1.046"/>
	<polygon points="248.852,621.492 247.806,620.969 247.806,622.538 248.852,622.538 	"/>
	<polygon points="729.492,393.985 728.969,395.555 730.015,395.555 	"/>
	<polygon points="671.962,376.203 671.962,375.157 670.916,374.634 670.916,376.203 	"/>
	<polygon points="208.581,243.884 210.15,243.361 208.581,242.838 	"/>
	<polygon points="157.327,234.993 157.85,233.423 156.804,233.423 	"/>
	<polygon points="207.012,210.934 207.012,211.98 208.581,211.457 	"/>
	<polygon points="667.778,204.658 667.255,206.75 668.301,206.227 	"/>
	<polygon points="282.847,163.864 284.416,164.387 284.416,163.341 282.847,163.341 	"/>
	<polygon points="703.865,156.542 702.819,157.588 704.911,157.065 	"/>
	<polygon points="156.804,155.496 155.758,154.973 155.758,156.542 156.804,156.542 	"/>
	<polygon points="346.131,153.404 346.654,151.835 345.608,151.835 	"/>
	<polygon points="695.497,138.76 697.589,138.237 696.543,137.714 	"/>
	<polygon points="551.148,69.201 550.102,70.247 552.194,69.724 	"/>
	<rect x="130.13" y="605.279" width="1.046" height="1.046"/>
	<polygon points="714.325,484.988 715.894,485.511 714.848,484.465 	"/>
	<rect x="111.825" y="474.528" width="1.046" height="1.046"/>
	<rect x="740.998" y="365.22" width="1.046" height="1.046"/>
	<rect x="688.175" y="341.162" width="1.046" height="1.046"/>
	<rect x="705.434" y="311.351" width="1.046" height="1.046"/>
	<rect x="678.238" y="310.828" width="1.046" height="1.046"/>
	<rect x="182.431" y="268.465" width="1.046" height="1.046"/>
	<rect x="167.787" y="260.097" width="1.046" height="1.046"/>
	<rect x="675.623" y="233.947" width="1.046" height="1.046"/>
	<rect x="207.012" y="202.043" width="1.046" height="1.046"/>
	<polygon points="269.249,201.52 269.772,203.089 270.295,202.043 	"/>
	<rect x="263.496" y="190.014" width="1.046" height="1.046"/>
	<rect x="188.184" y="174.324" width="1.046" height="1.046"/>
	<rect x="179.293" y="172.755" width="1.046" height="1.046"/>
	<rect x="268.203" y="164.91" width="1.046" height="1.046"/>
	<rect x="391.109" y="73.385" width="1.046" height="1.046"/>
	<rect x="698.112" y="52.464" width="1.046" height="1.046"/>
	<polygon points="389.54,724 389.017,724.523 390.063,725.046 	"/>
	<polygon points="174.063,612.078 175.109,611.555 174.063,611.032 	"/>
	<polygon points="660.456,557.162 659.933,557.685 660.979,558.208 	"/>
	<polygon points="714.325,466.16 713.802,466.683 714.848,467.206 	"/>
	<polygon points="714.848,383.525 715.894,383.525 714.848,382.479 	"/>
	<polygon points="671.962,237.085 671.439,236.039 670.916,236.562 	"/>
	<polygon points="224.271,221.917 223.225,221.917 223.748,222.963 	"/>
	<polygon points="194.46,217.21 193.937,217.733 194.983,218.256 	"/>
	<polygon points="219.564,189.491 219.564,190.537 220.61,190.537 	"/>
	<polygon points="292.784,174.847 292.261,173.801 291.738,174.324 	"/>
</g>
</svg>
